<svg xmlns="http://www.w3.org/2000/svg" xmlns:xlink="http://www.w3.org/1999/xlink" width="1080" zoomAndPan="magnify" viewBox="0 0 810 809.999993" height="1080" preserveAspectRatio="xMidYMid meet" version="1.0"><defs><g/><clipPath id="b8a3bcb94d"><path d="M 155.417969 1 L 322 1 L 322 176 L 155.417969 176 Z M 155.417969 1 " clip-rule="nonzero"/></clipPath><clipPath id="0c4321d9bd"><path d="M 488 1 L 654.917969 1 L 654.917969 176 L 488 176 Z M 488 1 " clip-rule="nonzero"/></clipPath></defs><g fill="#000000" fill-opacity="1"><g transform="translate(281.955517, 713.052944)"><g><path d="M 12.453125 0 L 11.96875 -2.28125 L 11.84375 -2.28125 C 11.050781 -1.28125 10.253906 -0.597656 9.453125 -0.234375 C 8.660156 0.117188 7.664062 0.296875 6.46875 0.296875 C 4.882812 0.296875 3.640625 -0.113281 2.734375 -0.9375 C 1.828125 -1.757812 1.375 -2.925781 1.375 -4.4375 C 1.375 -7.675781 3.96875 -9.375 9.15625 -9.53125 L 11.875 -9.625 L 11.875 -10.625 C 11.875 -11.882812 11.601562 -12.8125 11.0625 -13.40625 C 10.519531 -14.007812 9.65625 -14.3125 8.46875 -14.3125 C 7.125 -14.3125 5.609375 -13.898438 3.921875 -13.078125 L 3.171875 -14.9375 C 3.960938 -15.375 4.828125 -15.710938 5.765625 -15.953125 C 6.710938 -16.191406 7.660156 -16.3125 8.609375 -16.3125 C 10.523438 -16.3125 11.941406 -15.882812 12.859375 -15.03125 C 13.785156 -14.1875 14.25 -12.828125 14.25 -10.953125 L 14.25 0 Z M 6.953125 -1.71875 C 8.472656 -1.71875 9.664062 -2.128906 10.53125 -2.953125 C 11.394531 -3.785156 11.828125 -4.953125 11.828125 -6.453125 L 11.828125 -7.890625 L 9.390625 -7.796875 C 7.453125 -7.722656 6.054688 -7.421875 5.203125 -6.890625 C 4.347656 -6.359375 3.921875 -5.53125 3.921875 -4.40625 C 3.921875 -3.53125 4.1875 -2.863281 4.71875 -2.40625 C 5.25 -1.945312 5.992188 -1.71875 6.953125 -1.71875 Z M 6.953125 -1.71875 "/></g></g></g><path fill="#ff6b35" d="M 483.132812 153.921875 C 508.890625 153.921875 529.84375 174.875 529.84375 200.632812 C 529.84375 226.394531 508.890625 247.34375 483.132812 247.34375 C 457.375 247.34375 436.421875 226.394531 436.421875 200.632812 C 436.421875 174.820312 457.375 153.921875 483.132812 153.921875 Z M 483.132812 153.921875 " fill-opacity="1" fill-rule="nonzero"/><g clip-path="url(#b8a3bcb94d)"><path fill="#ff6b35" d="M 205.066406 175.621094 C 220.886719 114.320312 264.28125 63.980469 321.199219 38.699219 C 304.417969 16.308594 277.589844 1.824219 247.5 1.824219 C 196.675781 1.824219 155.417969 43.082031 155.417969 93.960938 C 155.417969 129.5 175.566406 160.390625 205.066406 175.675781 Z M 205.066406 175.621094 " fill-opacity="1" fill-rule="nonzero"/></g><g clip-path="url(#0c4321d9bd)"><path fill="#ff6b35" d="M 488.636719 38.699219 C 545.554688 64.03125 588.898438 114.269531 604.824219 175.621094 C 634.324219 160.335938 654.472656 129.445312 654.472656 93.90625 C 654.472656 43.027344 613.214844 1.769531 562.335938 1.769531 C 532.246094 1.769531 505.417969 16.199219 488.636719 38.59375 Z M 488.636719 38.699219 " fill-opacity="1" fill-rule="nonzero"/></g><path fill="#ff6b35" d="M 372.878906 201.058594 C 372.878906 175.300781 351.929688 154.351562 326.171875 154.351562 C 315.640625 154.351562 305.863281 157.878906 297.953125 163.757812 C 296.988281 164.613281 296.027344 165.414062 295.011719 166.160156 C 285.394531 174.714844 279.460938 187.164062 279.460938 201.007812 C 279.460938 226.765625 300.410156 247.714844 326.171875 247.714844 C 351.929688 247.714844 372.878906 226.820312 372.878906 201.058594 Z M 372.878906 201.058594 " fill-opacity="1" fill-rule="nonzero"/><path fill="#ff6b35" d="M 610.96875 241.089844 C 605.410156 325.050781 549.722656 395.328125 473.621094 422.101562 C 441.019531 433.59375 420.070312 463.09375 420.070312 497.722656 L 420.070312 499.113281 C 420.070312 530.003906 436.316406 556.566406 463.945312 570.566406 C 491.523438 584.570312 522.519531 582.058594 547.480469 563.886719 C 607.871094 519.851562 647.042969 448.609375 647.042969 368.230469 C 647.042969 321.683594 633.894531 278.179688 611.074219 241.25 L 610.96875 241.144531 Z M 336.378906 422.101562 C 260.167969 395.273438 204.480469 324.996094 199.027344 241.089844 L 198.921875 241.195312 C 176.101562 278.125 162.953125 321.628906 162.953125 368.175781 C 162.953125 448.609375 202.128906 519.902344 262.519531 563.832031 C 287.53125 582.058594 318.472656 584.515625 346.050781 570.515625 C 373.628906 556.511719 389.875 530.058594 389.875 499.058594 L 389.875 497.671875 C 389.875 463.09375 369.03125 433.59375 336.324219 422.101562 Z M 336.378906 422.101562 " fill-opacity="1" fill-rule="nonzero"/><path fill="#ff6b35" d="M 418.414062 257.015625 C 414.511719 257.015625 410.878906 258.296875 407.9375 260.488281 C 406.226562 261.773438 403.984375 261.773438 402.21875 260.488281 C 399.28125 258.351562 395.644531 257.015625 391.746094 257.015625 C 382.125 257.015625 374.269531 264.816406 374.269531 274.492188 C 374.269531 281.652344 378.597656 287.800781 384.742188 290.472656 C 397.304688 295.921875 398.640625 339.316406 398.640625 350.914062 C 382.714844 349.792969 367.054688 344.503906 353.480469 334.988281 C 349.417969 332.15625 343.964844 332.90625 340.867188 336.644531 L 340.4375 337.179688 C 338.621094 339.265625 337.925781 341.777344 338.25 344.503906 C 338.621094 347.28125 339.957031 349.527344 342.203125 351.074219 C 361.070312 364.328125 383.035156 370.902344 405 370.902344 C 426.964844 370.902344 448.929688 364.328125 467.792969 351.074219 C 470.039062 349.527344 471.429688 347.28125 471.75 344.503906 C 472.070312 341.722656 471.320312 339.210938 469.558594 337.179688 L 469.128906 336.644531 C 465.925781 332.90625 460.472656 332.210938 456.519531 334.988281 C 442.945312 344.503906 427.285156 349.792969 411.359375 350.914062 C 411.359375 339.316406 412.75 295.921875 425.308594 290.472656 C 431.453125 287.800781 435.78125 281.652344 435.78125 274.492188 C 435.890625 264.871094 428.140625 257.015625 418.414062 257.015625 Z M 418.414062 257.015625 " fill-opacity="1" fill-rule="nonzero"/><path fill="#ff6b35" d="M 610.96875 465.015625 C 605.410156 548.976562 549.722656 619.253906 473.621094 646.027344 C 441.019531 657.519531 420.070312 687.019531 420.070312 721.597656 L 420.070312 722.988281 C 420.070312 753.878906 436.316406 780.4375 463.945312 794.441406 C 491.523438 808.441406 522.519531 805.929688 547.480469 787.761719 C 607.871094 743.722656 647.042969 672.484375 647.042969 592.105469 C 647.042969 545.503906 633.894531 502.054688 611.074219 465.125 Z M 336.378906 646.027344 C 260.167969 619.199219 204.480469 548.921875 199.027344 465.015625 L 198.921875 465.125 C 176.101562 502.054688 162.953125 545.554688 162.953125 592.105469 C 162.953125 672.535156 202.128906 743.777344 262.519531 787.761719 C 287.53125 805.984375 318.472656 808.441406 346.050781 794.441406 C 373.628906 780.4375 389.875 753.984375 389.875 722.988281 L 389.875 721.597656 C 389.875 687.019531 369.03125 657.519531 336.324219 646.027344 Z M 336.378906 646.027344 " fill-opacity="1" fill-rule="nonzero"/></svg>