<svg xmlns="http://www.w3.org/2000/svg" xmlns:xlink="http://www.w3.org/1999/xlink" width="1080" zoomAndPan="magnify" viewBox="0 0 810 383.999986" height="512" preserveAspectRatio="xMidYMid meet" version="1.0"><defs><g/><clipPath id="340593c387"><path d="M 0 0.601562 L 48 0.601562 L 48 51 L 0 51 Z M 0 0.601562 " clip-rule="nonzero"/></clipPath><clipPath id="7d8c4e346f"><path d="M 96 0.601562 L 143.851562 0.601562 L 143.851562 51 L 96 51 Z M 96 0.601562 " clip-rule="nonzero"/></clipPath><clipPath id="4c5525c9e4"><rect x="0" width="344" y="0" height="203"/></clipPath><clipPath id="653d841ce0"><rect x="0" width="810" y="0" height="234"/></clipPath></defs><g transform="matrix(1, 0, 0, 1, 0, 75)"><g clip-path="url(#653d841ce0)"><path fill="#ff6b35" d="M 94.453125 44.628906 C 101.878906 44.628906 107.917969 50.667969 107.917969 58.09375 C 107.917969 65.519531 101.878906 71.554688 94.453125 71.554688 C 87.03125 71.554688 80.992188 65.519531 80.992188 58.09375 C 80.992188 50.652344 87.03125 44.628906 94.453125 44.628906 Z M 94.453125 44.628906 " fill-opacity="1" fill-rule="nonzero"/><g clip-path="url(#340593c387)"><path fill="#ff6b35" d="M 14.308594 50.882812 C 18.871094 33.214844 31.378906 18.707031 47.78125 11.421875 C 42.945312 4.964844 35.210938 0.792969 26.539062 0.792969 C 11.890625 0.792969 0 12.683594 0 27.347656 C 0 37.589844 5.808594 46.496094 14.308594 50.898438 Z M 14.308594 50.882812 " fill-opacity="1" fill-rule="nonzero"/></g><g clip-path="url(#7d8c4e346f)"><path fill="#ff6b35" d="M 96.042969 11.421875 C 112.445312 18.722656 124.9375 33.203125 129.527344 50.882812 C 138.03125 46.480469 143.839844 37.574219 143.839844 27.332031 C 143.839844 12.667969 131.949219 0.777344 117.28125 0.777344 C 108.609375 0.777344 100.878906 4.9375 96.042969 11.390625 Z M 96.042969 11.421875 " fill-opacity="1" fill-rule="nonzero"/></g><path fill="#ff6b35" d="M 62.675781 58.214844 C 62.675781 50.792969 56.640625 44.753906 49.214844 44.753906 C 46.179688 44.753906 43.359375 45.769531 41.082031 47.464844 C 40.804688 47.710938 40.527344 47.941406 40.234375 48.15625 C 37.460938 50.621094 35.75 54.210938 35.75 58.203125 C 35.75 65.625 41.789062 71.664062 49.214844 71.664062 C 56.640625 71.664062 62.675781 65.640625 62.675781 58.214844 Z M 62.675781 58.214844 " fill-opacity="1" fill-rule="nonzero"/><path fill="#ff6b35" d="M 131.300781 69.753906 C 129.699219 93.953125 113.648438 114.207031 91.714844 121.925781 C 82.316406 125.238281 76.277344 133.742188 76.277344 143.722656 L 76.277344 144.121094 C 76.277344 153.027344 80.960938 160.679688 88.925781 164.71875 C 96.875 168.753906 105.808594 168.027344 113 162.792969 C 130.40625 150.097656 141.699219 129.566406 141.699219 106.398438 C 141.699219 92.984375 137.910156 80.445312 131.332031 69.800781 L 131.300781 69.769531 Z M 52.15625 121.925781 C 30.191406 114.195312 14.140625 93.9375 12.570312 69.753906 L 12.539062 69.785156 C 5.960938 80.429688 2.171875 92.96875 2.171875 106.382812 C 2.171875 129.566406 13.460938 150.113281 30.867188 162.777344 C 38.078125 168.027344 46.996094 168.738281 54.945312 164.703125 C 62.894531 160.667969 67.574219 153.042969 67.574219 144.105469 L 67.574219 143.707031 C 67.574219 133.742188 61.566406 125.238281 52.140625 121.925781 Z M 52.15625 121.925781 " fill-opacity="1" fill-rule="nonzero"/><path fill="#ff6b35" d="M 75.800781 74.34375 C 74.675781 74.34375 73.628906 74.714844 72.78125 75.34375 C 72.289062 75.714844 71.640625 75.714844 71.132812 75.34375 C 70.285156 74.730469 69.238281 74.34375 68.113281 74.34375 C 65.34375 74.34375 63.078125 76.59375 63.078125 79.382812 C 63.078125 81.445312 64.324219 83.214844 66.097656 83.988281 C 69.714844 85.558594 70.101562 98.066406 70.101562 101.410156 C 65.511719 101.085938 61 99.558594 57.085938 96.816406 C 55.914062 96 54.34375 96.21875 53.449219 97.296875 L 53.328125 97.449219 C 52.804688 98.050781 52.601562 98.773438 52.695312 99.558594 C 52.804688 100.359375 53.1875 101.007812 53.835938 101.453125 C 59.273438 105.273438 65.605469 107.167969 71.933594 107.167969 C 78.265625 107.167969 84.597656 105.273438 90.035156 101.453125 C 90.679688 101.007812 91.082031 100.359375 91.175781 99.558594 C 91.265625 98.757812 91.050781 98.035156 90.542969 97.449219 L 90.417969 97.296875 C 89.496094 96.21875 87.921875 96.015625 86.785156 96.816406 C 82.871094 99.558594 78.359375 101.085938 73.769531 101.410156 C 73.769531 98.066406 74.167969 85.558594 77.789062 83.988281 C 79.558594 83.21875 80.808594 81.445312 80.808594 79.382812 C 80.839844 76.609375 78.605469 74.34375 75.800781 74.34375 Z M 75.800781 74.34375 " fill-opacity="1" fill-rule="nonzero"/><path fill="#ff6b35" d="M 131.300781 134.296875 C 129.699219 158.496094 113.648438 178.75 91.714844 186.46875 C 82.316406 189.777344 76.277344 198.28125 76.277344 208.246094 L 76.277344 208.648438 C 76.277344 217.550781 80.960938 225.207031 88.925781 229.242188 C 96.875 233.277344 105.808594 232.554688 113 227.316406 C 130.40625 214.625 141.699219 194.09375 141.699219 170.925781 C 141.699219 157.492188 137.910156 144.96875 131.332031 134.324219 Z M 52.15625 186.46875 C 30.191406 178.734375 14.140625 158.480469 12.570312 134.296875 L 12.539062 134.324219 C 5.960938 144.96875 2.171875 157.507812 2.171875 170.925781 C 2.171875 194.105469 13.460938 214.640625 30.867188 227.316406 C 38.078125 232.570312 46.996094 233.277344 54.945312 229.242188 C 62.894531 225.207031 67.574219 217.582031 67.574219 208.648438 L 67.574219 208.246094 C 67.574219 198.28125 61.566406 189.777344 52.140625 186.46875 Z M 52.15625 186.46875 " fill-opacity="1" fill-rule="nonzero"/><g transform="matrix(1, 0, 0, 1, 466, 15)"><g clip-path="url(#4c5525c9e4)"><g fill="#ff6b35" fill-opacity="1"><g transform="translate(0.694832, 160.458542)"><g><path d="M 47.078125 -110.515625 C 37.609375 -110.515625 32.875 -105.394531 32.875 -95.15625 L 32.875 -87.5625 L 58.3125 -87.5625 L 58.3125 -74.5 L 33.203125 -74.5 L 33.203125 0 L 17.34375 0 L 17.34375 -74.5 L 2.484375 -74.5 L 2.484375 -87.5625 L 17.34375 -87.5625 L 17.34375 -95.328125 C 17.34375 -104.023438 19.875 -110.90625 24.9375 -115.96875 C 30.007812 -121.039062 37.113281 -123.578125 46.25 -123.578125 C 49.78125 -123.578125 53.085938 -123.132812 56.171875 -122.25 C 59.253906 -121.363281 61.894531 -120.097656 64.09375 -118.453125 L 59.3125 -106.390625 C 55.675781 -109.140625 51.597656 -110.515625 47.078125 -110.515625 Z M 47.078125 -110.515625 "/></g></g></g><g fill="#ff6b35" fill-opacity="1"><g transform="translate(72.230373, 160.458542)"><g><path d="M 15.03125 -87.5625 L 30.890625 -87.5625 L 30.890625 0 L 15.03125 0 Z M 22.96875 -104.40625 C 19.882812 -104.40625 17.320312 -105.394531 15.28125 -107.375 C 13.25 -109.363281 12.234375 -111.789062 12.234375 -114.65625 C 12.234375 -117.519531 13.25 -119.96875 15.28125 -122 C 17.320312 -124.039062 19.882812 -125.0625 22.96875 -125.0625 C 26.050781 -125.0625 28.609375 -124.097656 30.640625 -122.171875 C 32.679688 -120.242188 33.703125 -117.847656 33.703125 -114.984375 C 33.703125 -112.003906 32.679688 -109.492188 30.640625 -107.453125 C 28.609375 -105.421875 26.050781 -104.40625 22.96875 -104.40625 Z M 22.96875 -104.40625 "/></g></g></g><g fill="#ff6b35" fill-opacity="1"><g transform="translate(118.323725, 160.458542)"><g><path d="M 61.78125 -88.390625 C 72.90625 -88.390625 81.742188 -85.164062 88.296875 -78.71875 C 94.847656 -72.28125 98.125 -62.835938 98.125 -50.390625 L 98.125 0 L 82.265625 0 L 82.265625 -48.5625 C 82.265625 -57.050781 80.226562 -63.441406 76.15625 -67.734375 C 72.082031 -72.023438 66.242188 -74.171875 58.640625 -74.171875 C 50.054688 -74.171875 43.285156 -71.664062 38.328125 -66.65625 C 33.367188 -61.644531 30.890625 -54.457031 30.890625 -45.09375 L 30.890625 0 L 15.03125 0 L 15.03125 -87.5625 L 30.234375 -87.5625 L 30.234375 -74.34375 C 33.421875 -78.851562 37.738281 -82.320312 43.1875 -84.75 C 48.644531 -87.175781 54.84375 -88.390625 61.78125 -88.390625 Z M 61.78125 -88.390625 "/></g></g></g><g fill="#ff6b35" fill-opacity="1"><g transform="translate(231.326767, 160.458542)"><g><path d="M 97.640625 -122.578125 L 97.640625 0 L 82.4375 0 L 82.4375 -13.875 C 78.914062 -9.03125 74.453125 -5.34375 69.046875 -2.8125 C 63.648438 -0.28125 57.707031 0.984375 51.21875 0.984375 C 42.738281 0.984375 35.140625 -0.882812 28.421875 -4.625 C 21.703125 -8.375 16.441406 -13.632812 12.640625 -20.40625 C 8.835938 -27.175781 6.9375 -34.96875 6.9375 -43.78125 C 6.9375 -52.59375 8.835938 -60.359375 12.640625 -67.078125 C 16.441406 -73.796875 21.703125 -79.023438 28.421875 -82.765625 C 35.140625 -86.515625 42.738281 -88.390625 51.21875 -88.390625 C 57.488281 -88.390625 63.265625 -87.203125 68.546875 -84.828125 C 73.835938 -82.460938 78.25 -78.96875 81.78125 -74.34375 L 81.78125 -122.578125 Z M 52.53125 -12.890625 C 58.039062 -12.890625 63.050781 -14.179688 67.5625 -16.765625 C 72.082031 -19.359375 75.609375 -22.992188 78.140625 -27.671875 C 80.671875 -32.347656 81.9375 -37.71875 81.9375 -43.78125 C 81.9375 -49.832031 80.671875 -55.195312 78.140625 -59.875 C 75.609375 -64.5625 72.082031 -68.171875 67.5625 -70.703125 C 63.050781 -73.234375 58.039062 -74.5 52.53125 -74.5 C 46.914062 -74.5 41.878906 -73.234375 37.421875 -70.703125 C 32.960938 -68.171875 29.4375 -64.5625 26.84375 -59.875 C 24.257812 -55.195312 22.96875 -49.832031 22.96875 -43.78125 C 22.96875 -37.71875 24.257812 -32.347656 26.84375 -27.671875 C 29.4375 -22.992188 32.960938 -19.359375 37.421875 -16.765625 C 41.878906 -14.179688 46.914062 -12.890625 52.53125 -12.890625 Z M 52.53125 -12.890625 "/></g></g></g></g></g><g fill="#ff6b35" fill-opacity="1"><g transform="translate(167.669629, 174.630766)"><g><path d="M 68.40625 -91.03125 C 79.53125 -91.03125 88.476562 -87.722656 95.25 -81.109375 C 102.019531 -74.503906 105.40625 -64.539062 105.40625 -51.21875 L 105.40625 0 L 74.015625 0 L 74.015625 -46.09375 C 74.015625 -58.320312 69.113281 -64.4375 59.3125 -64.4375 C 53.914062 -64.4375 49.59375 -62.671875 46.34375 -59.140625 C 43.09375 -55.617188 41.46875 -50.332031 41.46875 -43.28125 L 41.46875 0 L 10.078125 0 L 10.078125 -122.59375 L 41.46875 -122.59375 L 41.46875 -81.28125 C 44.882812 -84.476562 48.90625 -86.898438 53.53125 -88.546875 C 58.15625 -90.203125 63.113281 -91.03125 68.40625 -91.03125 Z M 68.40625 -91.03125 "/></g></g></g><g fill="#ff6b35" fill-opacity="1"><g transform="translate(263.818445, 174.630766)"><g><path d="M 104.25 -89.546875 L 104.25 0 L 74.34375 0 L 74.34375 -9.578125 C 71.039062 -5.941406 67.078125 -3.1875 62.453125 -1.3125 C 57.828125 0.550781 52.925781 1.484375 47.75 1.484375 C 36.1875 1.484375 26.960938 -1.925781 20.078125 -8.75 C 13.191406 -15.582031 9.75 -25.828125 9.75 -39.484375 L 9.75 -89.546875 L 41.140625 -89.546875 L 41.140625 -44.609375 C 41.140625 -37.890625 42.40625 -32.988281 44.9375 -29.90625 C 47.46875 -26.820312 51.160156 -25.28125 56.015625 -25.28125 C 60.960938 -25.28125 65.003906 -27.015625 68.140625 -30.484375 C 71.285156 -33.953125 72.859375 -39.265625 72.859375 -46.421875 L 72.859375 -89.546875 Z M 104.25 -89.546875 "/></g></g></g><g fill="#ff6b35" fill-opacity="1"><g transform="translate(359.306445, 174.630766)"><g><path d="M 55.015625 1.484375 C 45.429688 1.484375 36.785156 -0.492188 29.078125 -4.453125 C 21.367188 -8.421875 15.335938 -13.929688 10.984375 -20.984375 C 6.628906 -28.035156 4.453125 -36.019531 4.453125 -44.9375 C 4.453125 -53.75 6.628906 -61.679688 10.984375 -68.734375 C 15.335938 -75.785156 21.34375 -81.265625 29 -85.171875 C 36.65625 -89.078125 45.328125 -91.03125 55.015625 -91.03125 C 64.710938 -91.03125 73.414062 -89.078125 81.125 -85.171875 C 88.832031 -81.265625 94.832031 -75.8125 99.125 -68.8125 C 103.425781 -61.820312 105.578125 -53.863281 105.578125 -44.9375 C 105.578125 -36.019531 103.425781 -28.035156 99.125 -20.984375 C 94.832031 -13.929688 88.832031 -8.421875 81.125 -4.453125 C 73.414062 -0.492188 64.710938 1.484375 55.015625 1.484375 Z M 55.015625 -23.46875 C 60.523438 -23.46875 65.039062 -25.363281 68.5625 -29.15625 C 72.09375 -32.957031 73.859375 -38.21875 73.859375 -44.9375 C 73.859375 -51.550781 72.09375 -56.726562 68.5625 -60.46875 C 65.039062 -64.21875 60.523438 -66.09375 55.015625 -66.09375 C 49.503906 -66.09375 44.988281 -64.21875 41.46875 -60.46875 C 37.945312 -56.726562 36.1875 -51.550781 36.1875 -44.9375 C 36.1875 -38.21875 37.945312 -32.957031 41.46875 -29.15625 C 44.988281 -25.363281 49.503906 -23.46875 55.015625 -23.46875 Z M 55.015625 -23.46875 "/></g></g></g></g></g></svg>