<?xml version="1.0" encoding="UTF-8"?>
<svg xmlns="http://www.w3.org/2000/svg" version="1.1" width="1080" height="1080" viewBox="0 0 2160 2160" style="background: transparent;">

<g id="color_1" fill="#FFFFFF" stroke="#FFFFFF" stroke-width="2.0" stroke-linejoin="round" vector-effect="non-scaling-stroke">
<path d="M1928.00,1372.00 L1928.00,1373.00 L1927.00,1374.00 L1920.00,1374.00 L1920.00,1375.00 L1919.00,1376.00 L1914.00,1376.00 L1914.00,1377.00 L1913.00,1378.00 L1910.00,1378.00 L1910.00,1379.00 L1909.00,1380.00 L1906.00,1380.00 L1906.00,1381.00 L1905.00,1382.00 L1902.00,1382.00 L1902.00,1383.00 L1901.00,1384.00 L1898.00,1384.00 L1898.00,1385.00 L1897.00,1386.00 L1894.00,1386.00 L1894.00,1387.00 L1893.00,1388.00 L1890.00,1388.00 L1890.00,1389.00 L1889.00,1390.00 L1884.00,1390.00 L1884.00,1391.00 L1883.00,1392.00 L1880.00,1392.00 L1880.00,1393.00 L1879.00,1394.00 L1874.00,1394.00 L1874.00,1395.00 L1873.00,1396.00 L1870.00,1396.00 L1870.00,1397.00 L1869.00,1398.00 L1864.00,1398.00 L1864.00,1399.00 L1863.00,1400.00 L1858.00,1400.00 L1858.00,1401.00 L1857.00,1402.00 L1852.00,1402.00 L1852.00,1403.00 L1851.00,1404.00 L1846.00,1404.00 L1846.00,1405.00 L1845.00,1406.00 L1838.00,1406.00 L1838.00,1407.00 L1837.00,1408.00 L1830.00,1408.00 L1830.00,1409.00 L1829.00,1410.00 L1820.00,1410.00 L1820.00,1411.00 L1819.00,1412.00 L1810.00,1412.00 L1810.00,1413.00 L1809.00,1414.00 L1794.00,1414.00 L1794.00,1415.00 L1793.00,1416.00 L1772.00,1416.00 L1772.00,1417.00 L1771.00,1418.00 L1728.00,1418.00 L1727.00,1417.00 L1727.00,1416.00 L1700.00,1416.00 L1699.00,1415.00 L1699.00,1414.00 L1682.00,1414.00 L1681.00,1413.00 L1681.00,1412.00 L1666.00,1412.00 L1665.00,1411.00 L1665.00,1410.00 L1654.00,1410.00 L1653.00,1409.00 L1653.00,1408.00 L1642.00,1408.00 L1641.00,1407.00 L1641.00,1406.00 L1630.00,1406.00 L1629.00,1405.00 L1629.00,1404.00 L1620.00,1404.00 L1619.00,1403.00 L1619.00,1402.00 L1608.00,1402.00 L1607.00,1401.00 L1607.00,1400.00 L1596.00,1400.00 L1595.00,1399.00 L1595.00,1398.00 L1586.00,1398.00 L1585.00,1397.00 L1585.00,1396.00 L1576.00,1396.00 L1575.00,1395.00 L1575.00,1394.00 L1562.00,1394.00 L1561.00,1393.00 L1561.00,1392.00 L1552.00,1392.00 L1551.00,1391.00 L1551.00,1390.00 L1542.00,1390.00 L1541.00,1389.00 L1541.00,1388.00 L1530.00,1388.00 L1529.00,1387.00 L1529.00,1386.00 L1520.00,1386.00 L1519.00,1385.00 L1519.00,1384.00 L1508.00,1384.00 L1507.00,1383.00 L1507.00,1382.00 L1492.00,1382.00 L1491.00,1381.00 L1491.00,1380.00 L1478.00,1380.00 L1477.00,1379.00 L1477.00,1378.00 L1462.00,1378.00 L1461.00,1377.00 L1461.00,1376.00 L1436.00,1376.00 L1435.00,1375.00 L1435.00,1374.00 L1338.00,1374.00 L1338.00,1375.00 L1337.00,1376.00 L1318.00,1376.00 L1318.00,1377.00 L1317.00,1378.00 L1304.00,1378.00 L1304.00,1379.00 L1303.00,1380.00 L1292.00,1380.00 L1292.00,1381.00 L1291.00,1382.00 L1280.00,1382.00 L1280.00,1383.00 L1279.00,1384.00 L1272.00,1384.00 L1272.00,1385.00 L1271.00,1386.00 L1264.00,1386.00 L1264.00,1387.00 L1263.00,1388.00 L1254.00,1388.00 L1254.00,1389.00 L1253.00,1390.00 L1246.00,1390.00 L1246.00,1391.00 L1245.00,1392.00 L1240.00,1392.00 L1240.00,1393.00 L1239.00,1394.00 L1234.00,1394.00 L1234.00,1395.00 L1233.00,1396.00 L1228.00,1396.00 L1228.00,1397.00 L1227.00,1398.00 L1222.00,1398.00 L1222.00,1399.00 L1221.00,1400.00 L1216.00,1400.00 L1216.00,1401.00 L1215.00,1402.00 L1210.00,1402.00 L1210.00,1403.00 L1209.00,1404.00 L1204.00,1404.00 L1204.00,1405.00 L1203.00,1406.00 L1200.00,1406.00 L1200.00,1407.00 L1199.00,1408.00 L1194.00,1408.00 L1194.00,1409.00 L1193.00,1410.00 L1190.00,1410.00 L1190.00,1411.00 L1189.00,1412.00 L1186.00,1412.00 L1186.00,1413.00 L1185.00,1414.00 L1180.00,1414.00 L1180.00,1415.00 L1179.00,1416.00 L1176.00,1416.00 L1176.00,1417.00 L1175.00,1418.00 L1172.00,1418.00 L1172.00,1419.00 L1171.00,1420.00 L1168.00,1420.00 L1168.00,1421.00 L1167.00,1422.00 L1166.00,1422.00 L1166.00,1423.00 L1165.00,1424.00 L1162.00,1424.00 L1162.00,1425.00 L1161.00,1426.00 L1160.00,1426.00 L1160.00,1427.00 L1159.00,1428.00 L1158.00,1428.00 L1158.00,1429.00 L1157.00,1430.00 L1156.00,1430.00 L1156.00,1431.00 L1155.00,1432.00 L1152.00,1432.00 L1152.00,1433.00 L1151.00,1434.00 L1150.00,1434.00 L1150.00,1435.00 L1149.00,1436.00 L1148.00,1436.00 L1148.00,1439.00 L1147.00,1440.00 L1146.00,1440.00 L1146.00,1441.00 L1145.00,1442.00 L1144.00,1442.00 L1144.00,1443.00 L1143.00,1444.00 L1142.00,1444.00 L1142.00,1447.00 L1141.00,1448.00 L1140.00,1448.00 L1140.00,1451.00 L1139.00,1452.00 L1138.00,1452.00 L1138.00,1455.00 L1137.00,1456.00 L1136.00,1456.00 L1136.00,1461.00 L1135.00,1462.00 L1134.00,1462.00 L1134.00,1499.00 L1135.00,1499.00 L1136.00,1500.00 L1136.00,1505.00 L1137.00,1505.00 L1138.00,1506.00 L1138.00,1509.00 L1139.00,1509.00 L1140.00,1510.00 L1140.00,1513.00 L1141.00,1513.00 L1142.00,1514.00 L1142.00,1515.00 L1143.00,1515.00 L1144.00,1516.00 L1144.00,1517.00 L1145.00,1517.00 L1146.00,1518.00 L1146.00,1519.00 L1147.00,1519.00 L1148.00,1520.00 L1148.00,1521.00 L1149.00,1521.00 L1150.00,1522.00 L1150.00,1523.00 L1151.00,1523.00 L1152.00,1524.00 L1152.00,1525.00 L1153.00,1525.00 L1154.00,1526.00 L1154.00,1527.00 L1155.00,1527.00 L1156.00,1528.00 L1156.00,1529.00 L1159.00,1529.00 L1160.00,1530.00 L1160.00,1531.00 L1163.00,1531.00 L1164.00,1532.00 L1164.00,1533.00 L1167.00,1533.00 L1168.00,1534.00 L1168.00,1535.00 L1173.00,1535.00 L1174.00,1536.00 L1174.00,1537.00 L1223.00,1537.00 L1223.00,1536.00 L1224.00,1535.00 L1229.00,1535.00 L1229.00,1534.00 L1230.00,1533.00 L1233.00,1533.00 L1233.00,1532.00 L1234.00,1531.00 L1235.00,1531.00 L1235.00,1530.00 L1236.00,1529.00 L1241.00,1529.00 L1241.00,1528.00 L1242.00,1527.00 L1245.00,1527.00 L1245.00,1526.00 L1246.00,1525.00 L1249.00,1525.00 L1249.00,1524.00 L1250.00,1523.00 L1255.00,1523.00 L1255.00,1522.00 L1256.00,1521.00 L1261.00,1521.00 L1261.00,1520.00 L1262.00,1519.00 L1267.00,1519.00 L1267.00,1518.00 L1268.00,1517.00 L1271.00,1517.00 L1271.00,1516.00 L1272.00,1515.00 L1279.00,1515.00 L1279.00,1514.00 L1280.00,1513.00 L1285.00,1513.00 L1285.00,1512.00 L1286.00,1511.00 L1291.00,1511.00 L1291.00,1510.00 L1292.00,1509.00 L1301.00,1509.00 L1301.00,1508.00 L1302.00,1507.00 L1309.00,1507.00 L1309.00,1506.00 L1310.00,1505.00 L1317.00,1505.00 L1317.00,1504.00 L1318.00,1503.00 L1329.00,1503.00 L1329.00,1502.00 L1330.00,1501.00 L1341.00,1501.00 L1341.00,1500.00 L1342.00,1499.00 L1357.00,1499.00 L1357.00,1498.00 L1358.00,1497.00 L1385.00,1497.00 L1385.00,1496.00 L1386.00,1495.00 L1405.00,1495.00 L1406.00,1496.00 L1406.00,1497.00 L1441.00,1497.00 L1442.00,1498.00 L1442.00,1499.00 L1455.00,1499.00 L1456.00,1500.00 L1456.00,1501.00 L1469.00,1501.00 L1470.00,1502.00 L1470.00,1503.00 L1481.00,1503.00 L1482.00,1504.00 L1482.00,1505.00 L1491.00,1505.00 L1492.00,1506.00 L1492.00,1507.00 L1499.00,1507.00 L1500.00,1508.00 L1500.00,1509.00 L1509.00,1509.00 L1510.00,1510.00 L1510.00,1511.00 L1517.00,1511.00 L1518.00,1512.00 L1518.00,1513.00 L1525.00,1513.00 L1526.00,1514.00 L1526.00,1515.00 L1535.00,1515.00 L1536.00,1516.00 L1536.00,1517.00 L1545.00,1517.00 L1546.00,1518.00 L1546.00,1519.00 L1555.00,1519.00 L1556.00,1520.00 L1556.00,1521.00 L1567.00,1521.00 L1568.00,1522.00 L1568.00,1523.00 L1579.00,1523.00 L1580.00,1524.00 L1580.00,1525.00 L1591.00,1525.00 L1592.00,1526.00 L1592.00,1527.00 L1605.00,1527.00 L1606.00,1528.00 L1606.00,1529.00 L1621.00,1529.00 L1622.00,1530.00 L1622.00,1531.00 L1633.00,1531.00 L1634.00,1532.00 L1634.00,1533.00 L1649.00,1533.00 L1650.00,1534.00 L1650.00,1535.00 L1667.00,1535.00 L1668.00,1536.00 L1668.00,1537.00 L1685.00,1537.00 L1686.00,1538.00 L1686.00,1539.00 L1709.00,1539.00 L1710.00,1540.00 L1710.00,1541.00 L1809.00,1541.00 L1809.00,1540.00 L1810.00,1539.00 L1829.00,1539.00 L1829.00,1538.00 L1830.00,1537.00 L1843.00,1537.00 L1843.00,1536.00 L1844.00,1535.00 L1855.00,1535.00 L1855.00,1534.00 L1856.00,1533.00 L1867.00,1533.00 L1867.00,1532.00 L1868.00,1531.00 L1875.00,1531.00 L1875.00,1530.00 L1876.00,1529.00 L1883.00,1529.00 L1883.00,1528.00 L1884.00,1527.00 L1889.00,1527.00 L1889.00,1526.00 L1890.00,1525.00 L1897.00,1525.00 L1897.00,1524.00 L1898.00,1523.00 L1903.00,1523.00 L1903.00,1522.00 L1904.00,1521.00 L1909.00,1521.00 L1909.00,1520.00 L1910.00,1519.00 L1915.00,1519.00 L1915.00,1518.00 L1916.00,1517.00 L1919.00,1517.00 L1919.00,1516.00 L1920.00,1515.00 L1925.00,1515.00 L1925.00,1514.00 L1926.00,1513.00 L1929.00,1513.00 L1929.00,1512.00 L1930.00,1511.00 L1933.00,1511.00 L1933.00,1510.00 L1934.00,1509.00 L1937.00,1509.00 L1937.00,1508.00 L1938.00,1507.00 L1943.00,1507.00 L1943.00,1506.00 L1944.00,1505.00 L1947.00,1505.00 L1947.00,1504.00 L1948.00,1503.00 L1951.00,1503.00 L1951.00,1502.00 L1952.00,1501.00 L1953.00,1501.00 L1953.00,1500.00 L1954.00,1499.00 L1957.00,1499.00 L1957.00,1498.00 L1958.00,1497.00 L1961.00,1497.00 L1961.00,1496.00 L1962.00,1495.00 L1963.00,1495.00 L1963.00,1494.00 L1964.00,1493.00 L1967.00,1493.00 L1967.00,1492.00 L1968.00,1491.00 L1971.00,1491.00 L1971.00,1490.00 L1972.00,1489.00 L1973.00,1489.00 L1973.00,1488.00 L1974.00,1487.00 L1977.00,1487.00 L1977.00,1486.00 L1978.00,1485.00 L1979.00,1485.00 L1979.00,1484.00 L1980.00,1483.00 L1981.00,1483.00 L1981.00,1482.00 L1982.00,1481.00 L1985.00,1481.00 L1985.00,1480.00 L1986.00,1479.00 L1987.00,1479.00 L1987.00,1476.00 L1988.00,1475.00 L1989.00,1475.00 L1989.00,1474.00 L1990.00,1473.00 L1991.00,1473.00 L1991.00,1470.00 L1992.00,1469.00 L1993.00,1469.00 L1993.00,1466.00 L1994.00,1465.00 L1995.00,1465.00 L1995.00,1458.00 L1996.00,1457.00 L1997.00,1457.00 L1997.00,1408.00 L1996.00,1408.00 L1995.00,1407.00 L1995.00,1404.00 L1994.00,1404.00 L1993.00,1403.00 L1993.00,1402.00 L1992.00,1402.00 L1991.00,1401.00 L1991.00,1398.00 L1990.00,1398.00 L1989.00,1397.00 L1989.00,1396.00 L1988.00,1396.00 L1987.00,1395.00 L1987.00,1394.00 L1986.00,1394.00 L1985.00,1393.00 L1985.00,1392.00 L1984.00,1392.00 L1983.00,1391.00 L1983.00,1390.00 L1982.00,1390.00 L1981.00,1389.00 L1981.00,1388.00 L1980.00,1388.00 L1979.00,1387.00 L1979.00,1386.00 L1976.00,1386.00 L1975.00,1385.00 L1975.00,1384.00 L1974.00,1384.00 L1973.00,1383.00 L1973.00,1382.00 L1972.00,1382.00 L1971.00,1381.00 L1971.00,1380.00 L1968.00,1380.00 L1967.00,1379.00 L1967.00,1378.00 L1964.00,1378.00 L1963.00,1377.00 L1963.00,1376.00 L1960.00,1376.00 L1959.00,1375.00 L1959.00,1374.00 L1952.00,1374.00 L1951.00,1373.00 L1951.00,1372.00 L1928.00,1372.00 Z M748.00,1090.00 L748.00,1091.00 L747.00,1092.00 L740.00,1092.00 L740.00,1093.00 L739.00,1094.00 L732.00,1094.00 L732.00,1095.00 L731.00,1096.00 L728.00,1096.00 L728.00,1097.00 L727.00,1098.00 L722.00,1098.00 L722.00,1099.00 L721.00,1100.00 L718.00,1100.00 L718.00,1101.00 L717.00,1102.00 L716.00,1102.00 L716.00,1103.00 L715.00,1104.00 L712.00,1104.00 L712.00,1105.00 L711.00,1106.00 L710.00,1106.00 L710.00,1107.00 L709.00,1108.00 L708.00,1108.00 L708.00,1111.00 L707.00,1112.00 L706.00,1112.00 L706.00,1115.00 L705.00,1116.00 L704.00,1116.00 L704.00,1117.00 L703.00,1118.00 L702.00,1118.00 L702.00,1121.00 L701.00,1122.00 L700.00,1122.00 L700.00,1127.00 L699.00,1128.00 L698.00,1128.00 L698.00,1135.00 L697.00,1136.00 L696.00,1136.00 L696.00,1489.00 L697.00,1489.00 L698.00,1490.00 L698.00,1505.00 L699.00,1505.00 L700.00,1506.00 L700.00,1513.00 L701.00,1513.00 L702.00,1514.00 L702.00,1517.00 L703.00,1517.00 L704.00,1518.00 L704.00,1519.00 L705.00,1519.00 L706.00,1520.00 L706.00,1523.00 L707.00,1523.00 L708.00,1524.00 L708.00,1525.00 L711.00,1525.00 L712.00,1526.00 L712.00,1527.00 L713.00,1527.00 L714.00,1528.00 L714.00,1529.00 L715.00,1529.00 L716.00,1530.00 L716.00,1531.00 L719.00,1531.00 L720.00,1532.00 L720.00,1533.00 L721.00,1533.00 L722.00,1534.00 L722.00,1535.00 L727.00,1535.00 L728.00,1536.00 L728.00,1537.00 L731.00,1537.00 L732.00,1538.00 L732.00,1539.00 L739.00,1539.00 L740.00,1540.00 L740.00,1541.00 L767.00,1541.00 L767.00,1540.00 L768.00,1539.00 L777.00,1539.00 L777.00,1538.00 L778.00,1537.00 L783.00,1537.00 L783.00,1536.00 L784.00,1535.00 L787.00,1535.00 L787.00,1534.00 L788.00,1533.00 L791.00,1533.00 L791.00,1532.00 L792.00,1531.00 L793.00,1531.00 L793.00,1530.00 L794.00,1529.00 L797.00,1529.00 L797.00,1528.00 L798.00,1527.00 L799.00,1527.00 L799.00,1526.00 L800.00,1525.00 L801.00,1525.00 L801.00,1524.00 L802.00,1523.00 L803.00,1523.00 L803.00,1522.00 L804.00,1521.00 L805.00,1521.00 L805.00,1520.00 L806.00,1519.00 L807.00,1519.00 L807.00,1518.00 L808.00,1517.00 L809.00,1517.00 L809.00,1514.00 L810.00,1513.00 L811.00,1513.00 L811.00,1512.00 L812.00,1511.00 L813.00,1511.00 L813.00,1508.00 L814.00,1507.00 L815.00,1507.00 L815.00,1504.00 L816.00,1503.00 L817.00,1503.00 L817.00,1496.00 L818.00,1495.00 L819.00,1495.00 L819.00,1146.00 L818.00,1146.00 L817.00,1145.00 L817.00,1136.00 L816.00,1136.00 L815.00,1135.00 L815.00,1128.00 L814.00,1128.00 L813.00,1127.00 L813.00,1124.00 L812.00,1124.00 L811.00,1123.00 L811.00,1120.00 L810.00,1120.00 L809.00,1119.00 L809.00,1116.00 L808.00,1116.00 L807.00,1115.00 L807.00,1112.00 L806.00,1112.00 L805.00,1111.00 L805.00,1110.00 L804.00,1110.00 L803.00,1109.00 L803.00,1108.00 L802.00,1108.00 L801.00,1107.00 L801.00,1106.00 L800.00,1106.00 L799.00,1105.00 L799.00,1104.00 L798.00,1104.00 L797.00,1103.00 L797.00,1102.00 L796.00,1102.00 L795.00,1101.00 L795.00,1100.00 L794.00,1100.00 L793.00,1099.00 L793.00,1098.00 L790.00,1098.00 L789.00,1097.00 L789.00,1096.00 L786.00,1096.00 L785.00,1095.00 L785.00,1094.00 L780.00,1094.00 L779.00,1093.00 L779.00,1092.00 L772.00,1092.00 L771.00,1091.00 L771.00,1090.00 L748.00,1090.00 Z M392.00,1090.00 L392.00,1091.00 L391.00,1092.00 L382.00,1092.00 L382.00,1093.00 L381.00,1094.00 L374.00,1094.00 L374.00,1095.00 L373.00,1096.00 L368.00,1096.00 L368.00,1097.00 L367.00,1098.00 L364.00,1098.00 L364.00,1099.00 L363.00,1100.00 L362.00,1100.00 L362.00,1101.00 L361.00,1102.00 L360.00,1102.00 L360.00,1103.00 L359.00,1104.00 L358.00,1104.00 L358.00,1105.00 L357.00,1106.00 L356.00,1106.00 L356.00,1107.00 L355.00,1108.00 L354.00,1108.00 L354.00,1109.00 L353.00,1110.00 L352.00,1110.00 L352.00,1111.00 L351.00,1112.00 L350.00,1112.00 L350.00,1115.00 L349.00,1116.00 L348.00,1116.00 L348.00,1119.00 L347.00,1120.00 L346.00,1120.00 L346.00,1123.00 L345.00,1124.00 L344.00,1124.00 L344.00,1127.00 L343.00,1128.00 L342.00,1128.00 L342.00,1133.00 L341.00,1134.00 L340.00,1134.00 L340.00,1139.00 L339.00,1140.00 L338.00,1140.00 L338.00,1149.00 L337.00,1150.00 L336.00,1150.00 L336.00,1477.00 L337.00,1477.00 L338.00,1478.00 L338.00,1489.00 L339.00,1489.00 L340.00,1490.00 L340.00,1497.00 L341.00,1497.00 L342.00,1498.00 L342.00,1505.00 L343.00,1505.00 L344.00,1506.00 L344.00,1511.00 L345.00,1511.00 L346.00,1512.00 L346.00,1515.00 L347.00,1515.00 L348.00,1516.00 L348.00,1517.00 L349.00,1517.00 L350.00,1518.00 L350.00,1521.00 L351.00,1521.00 L352.00,1522.00 L352.00,1523.00 L353.00,1523.00 L354.00,1524.00 L354.00,1525.00 L355.00,1525.00 L356.00,1526.00 L356.00,1527.00 L357.00,1527.00 L358.00,1528.00 L358.00,1529.00 L359.00,1529.00 L360.00,1530.00 L360.00,1531.00 L363.00,1531.00 L364.00,1532.00 L364.00,1533.00 L367.00,1533.00 L368.00,1534.00 L368.00,1535.00 L371.00,1535.00 L372.00,1536.00 L372.00,1537.00 L377.00,1537.00 L378.00,1538.00 L378.00,1539.00 L389.00,1539.00 L390.00,1540.00 L390.00,1541.00 L405.00,1541.00 L405.00,1540.00 L406.00,1539.00 L421.00,1539.00 L421.00,1538.00 L422.00,1537.00 L429.00,1537.00 L429.00,1536.00 L430.00,1535.00 L433.00,1535.00 L433.00,1534.00 L434.00,1533.00 L435.00,1533.00 L435.00,1532.00 L436.00,1531.00 L437.00,1531.00 L437.00,1530.00 L438.00,1529.00 L439.00,1529.00 L439.00,1528.00 L440.00,1527.00 L441.00,1527.00 L441.00,1526.00 L442.00,1525.00 L443.00,1525.00 L443.00,1524.00 L444.00,1523.00 L445.00,1523.00 L445.00,1522.00 L446.00,1521.00 L447.00,1521.00 L447.00,1518.00 L448.00,1517.00 L449.00,1517.00 L449.00,1516.00 L450.00,1515.00 L451.00,1515.00 L451.00,1512.00 L452.00,1511.00 L453.00,1511.00 L453.00,1508.00 L454.00,1507.00 L455.00,1507.00 L455.00,1506.00 L456.00,1505.00 L457.00,1505.00 L457.00,1500.00 L458.00,1499.00 L459.00,1499.00 L459.00,1496.00 L460.00,1495.00 L461.00,1495.00 L461.00,1486.00 L462.00,1485.00 L463.00,1485.00 L463.00,1202.00 L462.00,1202.00 L461.00,1201.00 L461.00,1132.00 L460.00,1132.00 L459.00,1131.00 L459.00,1128.00 L458.00,1128.00 L457.00,1127.00 L457.00,1124.00 L456.00,1124.00 L455.00,1123.00 L455.00,1122.00 L454.00,1122.00 L453.00,1121.00 L453.00,1118.00 L452.00,1118.00 L451.00,1117.00 L451.00,1116.00 L450.00,1116.00 L449.00,1115.00 L449.00,1112.00 L448.00,1112.00 L447.00,1111.00 L447.00,1110.00 L446.00,1110.00 L445.00,1109.00 L445.00,1108.00 L444.00,1108.00 L443.00,1107.00 L443.00,1104.00 L442.00,1104.00 L441.00,1103.00 L441.00,1102.00 L440.00,1102.00 L439.00,1101.00 L439.00,1100.00 L438.00,1100.00 L437.00,1099.00 L437.00,1098.00 L434.00,1098.00 L433.00,1097.00 L433.00,1096.00 L430.00,1096.00 L429.00,1095.00 L429.00,1094.00 L422.00,1094.00 L421.00,1093.00 L421.00,1092.00 L412.00,1092.00 L411.00,1091.00 L411.00,1090.00 L392.00,1090.00 Z M1890.00,842.00 L1890.00,843.00 L1889.00,844.00 L1202.00,844.00 L1202.00,845.00 L1201.00,846.00 L1190.00,846.00 L1190.00,847.00 L1189.00,848.00 L1184.00,848.00 L1184.00,849.00 L1183.00,850.00 L1178.00,850.00 L1178.00,851.00 L1177.00,852.00 L1174.00,852.00 L1174.00,853.00 L1173.00,854.00 L1170.00,854.00 L1170.00,855.00 L1169.00,856.00 L1168.00,856.00 L1168.00,857.00 L1167.00,858.00 L1164.00,858.00 L1164.00,859.00 L1163.00,860.00 L1162.00,860.00 L1162.00,863.00 L1161.00,864.00 L1160.00,864.00 L1160.00,865.00 L1159.00,866.00 L1158.00,866.00 L1158.00,869.00 L1157.00,870.00 L1156.00,870.00 L1156.00,873.00 L1155.00,874.00 L1154.00,874.00 L1154.00,877.00 L1153.00,878.00 L1152.00,878.00 L1152.00,883.00 L1151.00,884.00 L1150.00,884.00 L1150.00,891.00 L1149.00,892.00 L1148.00,892.00 L1148.00,903.00 L1147.00,904.00 L1146.00,904.00 L1146.00,1283.00 L1147.00,1283.00 L1148.00,1284.00 L1148.00,1293.00 L1149.00,1293.00 L1150.00,1294.00 L1150.00,1299.00 L1151.00,1299.00 L1152.00,1300.00 L1152.00,1303.00 L1153.00,1303.00 L1154.00,1304.00 L1154.00,1307.00 L1155.00,1307.00 L1156.00,1308.00 L1156.00,1309.00 L1157.00,1309.00 L1158.00,1310.00 L1158.00,1311.00 L1159.00,1311.00 L1160.00,1312.00 L1160.00,1313.00 L1161.00,1313.00 L1162.00,1314.00 L1162.00,1315.00 L1163.00,1315.00 L1164.00,1316.00 L1164.00,1317.00 L1167.00,1317.00 L1168.00,1318.00 L1168.00,1319.00 L1169.00,1319.00 L1170.00,1320.00 L1170.00,1321.00 L1173.00,1321.00 L1174.00,1322.00 L1174.00,1323.00 L1179.00,1323.00 L1180.00,1324.00 L1180.00,1325.00 L1185.00,1325.00 L1186.00,1326.00 L1186.00,1327.00 L1191.00,1327.00 L1192.00,1328.00 L1192.00,1329.00 L1205.00,1329.00 L1206.00,1330.00 L1206.00,1331.00 L1919.00,1331.00 L1919.00,1330.00 L1920.00,1329.00 L1937.00,1329.00 L1937.00,1328.00 L1938.00,1327.00 L1947.00,1327.00 L1947.00,1326.00 L1948.00,1325.00 L1953.00,1325.00 L1953.00,1324.00 L1954.00,1323.00 L1961.00,1323.00 L1961.00,1322.00 L1962.00,1321.00 L1965.00,1321.00 L1965.00,1320.00 L1966.00,1319.00 L1969.00,1319.00 L1969.00,1318.00 L1970.00,1317.00 L1971.00,1317.00 L1971.00,1316.00 L1972.00,1315.00 L1973.00,1315.00 L1973.00,1314.00 L1974.00,1313.00 L1975.00,1313.00 L1975.00,1310.00 L1976.00,1309.00 L1977.00,1309.00 L1977.00,1308.00 L1978.00,1307.00 L1979.00,1307.00 L1979.00,1304.00 L1980.00,1303.00 L1981.00,1303.00 L1981.00,1300.00 L1982.00,1299.00 L1983.00,1299.00 L1983.00,1296.00 L1984.00,1295.00 L1985.00,1295.00 L1985.00,1290.00 L1986.00,1289.00 L1987.00,1289.00 L1987.00,1280.00 L1988.00,1279.00 L1989.00,1279.00 L1989.00,930.00 L1988.00,930.00 L1987.00,929.00 L1987.00,898.00 L1986.00,898.00 L1985.00,897.00 L1985.00,890.00 L1984.00,890.00 L1983.00,889.00 L1983.00,884.00 L1982.00,884.00 L1981.00,883.00 L1981.00,878.00 L1980.00,878.00 L1979.00,877.00 L1979.00,874.00 L1978.00,874.00 L1977.00,873.00 L1977.00,870.00 L1976.00,870.00 L1975.00,869.00 L1975.00,868.00 L1974.00,868.00 L1973.00,867.00 L1973.00,864.00 L1972.00,864.00 L1971.00,863.00 L1971.00,862.00 L1970.00,862.00 L1969.00,861.00 L1969.00,858.00 L1968.00,858.00 L1967.00,857.00 L1967.00,856.00 L1966.00,856.00 L1965.00,855.00 L1965.00,854.00 L1962.00,854.00 L1961.00,853.00 L1961.00,852.00 L1960.00,852.00 L1959.00,851.00 L1959.00,850.00 L1956.00,850.00 L1955.00,849.00 L1955.00,848.00 L1952.00,848.00 L1951.00,847.00 L1951.00,846.00 L1946.00,846.00 L1945.00,845.00 L1945.00,844.00 L1928.00,844.00 L1927.00,843.00 L1927.00,842.00 L1890.00,842.00 Z M1637.00,1142.00 L1638.00,1141.00 L1851.00,1141.00 L1852.00,1142.00 L1852.00,1143.00 L1857.00,1143.00 L1858.00,1144.00 L1858.00,1145.00 L1861.00,1145.00 L1862.00,1146.00 L1862.00,1149.00 L1863.00,1149.00 L1864.00,1150.00 L1864.00,1173.00 L1865.00,1173.00 L1866.00,1174.00 L1866.00,1195.00 L1865.00,1196.00 L1864.00,1196.00 L1864.00,1201.00 L1863.00,1202.00 L1862.00,1202.00 L1862.00,1205.00 L1861.00,1206.00 L1860.00,1206.00 L1860.00,1207.00 L1859.00,1208.00 L1858.00,1208.00 L1858.00,1209.00 L1857.00,1210.00 L1856.00,1210.00 L1856.00,1211.00 L1855.00,1212.00 L1854.00,1212.00 L1854.00,1213.00 L1853.00,1214.00 L1850.00,1214.00 L1850.00,1215.00 L1849.00,1216.00 L1846.00,1216.00 L1846.00,1217.00 L1845.00,1218.00 L1838.00,1218.00 L1838.00,1219.00 L1837.00,1220.00 L1828.00,1220.00 L1828.00,1221.00 L1827.00,1222.00 L1646.00,1222.00 L1645.00,1221.00 L1645.00,1220.00 L1636.00,1220.00 L1635.00,1219.00 L1635.00,1218.00 L1632.00,1218.00 L1631.00,1217.00 L1631.00,1216.00 L1630.00,1216.00 L1629.00,1215.00 L1629.00,1214.00 L1628.00,1214.00 L1627.00,1213.00 L1627.00,1152.00 L1628.00,1151.00 L1629.00,1151.00 L1629.00,1148.00 L1630.00,1147.00 L1631.00,1147.00 L1631.00,1146.00 L1632.00,1145.00 L1633.00,1145.00 L1633.00,1144.00 L1634.00,1143.00 L1637.00,1143.00 L1637.00,1142.00 Z M1277.00,1142.00 L1278.00,1141.00 L1495.00,1141.00 L1496.00,1142.00 L1496.00,1143.00 L1503.00,1143.00 L1504.00,1144.00 L1504.00,1145.00 L1505.00,1145.00 L1506.00,1146.00 L1506.00,1147.00 L1507.00,1147.00 L1508.00,1148.00 L1508.00,1173.00 L1509.00,1173.00 L1510.00,1174.00 L1510.00,1197.00 L1509.00,1198.00 L1508.00,1198.00 L1508.00,1209.00 L1507.00,1210.00 L1506.00,1210.00 L1506.00,1211.00 L1505.00,1212.00 L1504.00,1212.00 L1504.00,1215.00 L1503.00,1216.00 L1502.00,1216.00 L1502.00,1217.00 L1501.00,1218.00 L1498.00,1218.00 L1498.00,1219.00 L1497.00,1220.00 L1492.00,1220.00 L1492.00,1221.00 L1491.00,1222.00 L1298.00,1222.00 L1297.00,1221.00 L1297.00,1220.00 L1290.00,1220.00 L1289.00,1219.00 L1289.00,1218.00 L1286.00,1218.00 L1285.00,1217.00 L1285.00,1216.00 L1280.00,1216.00 L1279.00,1215.00 L1279.00,1214.00 L1278.00,1214.00 L1277.00,1213.00 L1277.00,1212.00 L1274.00,1212.00 L1273.00,1211.00 L1273.00,1210.00 L1272.00,1210.00 L1271.00,1209.00 L1271.00,1206.00 L1270.00,1206.00 L1269.00,1205.00 L1269.00,1200.00 L1268.00,1200.00 L1267.00,1199.00 L1267.00,1150.00 L1268.00,1149.00 L1269.00,1149.00 L1269.00,1148.00 L1270.00,1147.00 L1271.00,1147.00 L1271.00,1146.00 L1272.00,1145.00 L1273.00,1145.00 L1273.00,1144.00 L1274.00,1143.00 L1277.00,1143.00 L1277.00,1142.00 Z M1633.00,960.00 L1634.00,959.00 L1849.00,959.00 L1850.00,960.00 L1850.00,961.00 L1853.00,961.00 L1854.00,962.00 L1854.00,963.00 L1857.00,963.00 L1858.00,964.00 L1858.00,965.00 L1859.00,965.00 L1860.00,966.00 L1860.00,967.00 L1861.00,967.00 L1862.00,968.00 L1862.00,973.00 L1863.00,973.00 L1864.00,974.00 L1864.00,1023.00 L1863.00,1024.00 L1862.00,1024.00 L1862.00,1029.00 L1861.00,1030.00 L1860.00,1030.00 L1860.00,1031.00 L1859.00,1032.00 L1854.00,1032.00 L1854.00,1033.00 L1853.00,1034.00 L1640.00,1034.00 L1639.00,1033.00 L1639.00,1032.00 L1634.00,1032.00 L1633.00,1031.00 L1633.00,1030.00 L1630.00,1030.00 L1629.00,1029.00 L1629.00,1026.00 L1628.00,1026.00 L1627.00,1025.00 L1627.00,964.00 L1628.00,963.00 L1629.00,963.00 L1629.00,962.00 L1630.00,961.00 L1633.00,961.00 L1633.00,960.00 Z M1285.00,960.00 L1286.00,959.00 L1499.00,959.00 L1500.00,960.00 L1500.00,961.00 L1503.00,961.00 L1504.00,962.00 L1504.00,963.00 L1505.00,963.00 L1506.00,964.00 L1506.00,965.00 L1507.00,965.00 L1508.00,966.00 L1508.00,989.00 L1509.00,989.00 L1510.00,990.00 L1510.00,1011.00 L1509.00,1012.00 L1508.00,1012.00 L1508.00,1021.00 L1507.00,1022.00 L1506.00,1022.00 L1506.00,1025.00 L1505.00,1026.00 L1504.00,1026.00 L1504.00,1027.00 L1503.00,1028.00 L1502.00,1028.00 L1502.00,1029.00 L1501.00,1030.00 L1500.00,1030.00 L1500.00,1031.00 L1499.00,1032.00 L1496.00,1032.00 L1496.00,1033.00 L1495.00,1034.00 L1276.00,1034.00 L1275.00,1033.00 L1275.00,1032.00 L1272.00,1032.00 L1271.00,1031.00 L1271.00,1030.00 L1270.00,1030.00 L1269.00,1029.00 L1269.00,1028.00 L1268.00,1028.00 L1267.00,1027.00 L1267.00,1010.00 L1266.00,1010.00 L1265.00,1009.00 L1265.00,984.00 L1266.00,983.00 L1267.00,983.00 L1267.00,976.00 L1268.00,975.00 L1269.00,975.00 L1269.00,972.00 L1270.00,971.00 L1271.00,971.00 L1271.00,970.00 L1272.00,969.00 L1273.00,969.00 L1273.00,968.00 L1274.00,967.00 L1275.00,967.00 L1275.00,966.00 L1276.00,965.00 L1277.00,965.00 L1277.00,964.00 L1278.00,963.00 L1281.00,963.00 L1281.00,962.00 L1282.00,961.00 L1285.00,961.00 L1285.00,960.00 Z M568.00,782.00 L568.00,783.00 L567.00,784.00 L558.00,784.00 L558.00,785.00 L557.00,786.00 L552.00,786.00 L552.00,787.00 L551.00,788.00 L548.00,788.00 L548.00,789.00 L547.00,790.00 L544.00,790.00 L544.00,791.00 L543.00,792.00 L540.00,792.00 L540.00,793.00 L539.00,794.00 L538.00,794.00 L538.00,795.00 L537.00,796.00 L536.00,796.00 L536.00,797.00 L535.00,798.00 L534.00,798.00 L534.00,801.00 L533.00,802.00 L532.00,802.00 L532.00,803.00 L531.00,804.00 L530.00,804.00 L530.00,805.00 L529.00,806.00 L528.00,806.00 L528.00,809.00 L527.00,810.00 L526.00,810.00 L526.00,813.00 L525.00,814.00 L524.00,814.00 L524.00,817.00 L523.00,818.00 L522.00,818.00 L522.00,823.00 L521.00,824.00 L520.00,824.00 L520.00,831.00 L519.00,832.00 L518.00,832.00 L518.00,841.00 L517.00,842.00 L516.00,842.00 L516.00,885.00 L515.00,886.00 L514.00,886.00 L514.00,891.00 L513.00,892.00 L512.00,892.00 L512.00,893.00 L511.00,894.00 L468.00,894.00 L468.00,895.00 L467.00,896.00 L378.00,896.00 L378.00,897.00 L377.00,898.00 L358.00,898.00 L358.00,899.00 L357.00,900.00 L354.00,900.00 L354.00,901.00 L353.00,902.00 L350.00,902.00 L350.00,903.00 L349.00,904.00 L348.00,904.00 L348.00,905.00 L347.00,906.00 L344.00,906.00 L344.00,907.00 L343.00,908.00 L342.00,908.00 L342.00,909.00 L341.00,910.00 L340.00,910.00 L340.00,911.00 L339.00,912.00 L338.00,912.00 L338.00,913.00 L337.00,914.00 L336.00,914.00 L336.00,915.00 L335.00,916.00 L334.00,916.00 L334.00,919.00 L333.00,920.00 L332.00,920.00 L332.00,921.00 L331.00,922.00 L330.00,922.00 L330.00,925.00 L329.00,926.00 L328.00,926.00 L328.00,927.00 L327.00,928.00 L326.00,928.00 L326.00,931.00 L325.00,932.00 L324.00,932.00 L324.00,939.00 L323.00,940.00 L322.00,940.00 L322.00,975.00 L323.00,975.00 L324.00,976.00 L324.00,983.00 L325.00,983.00 L326.00,984.00 L326.00,987.00 L327.00,987.00 L328.00,988.00 L328.00,993.00 L329.00,993.00 L330.00,994.00 L330.00,995.00 L331.00,995.00 L332.00,996.00 L332.00,999.00 L333.00,999.00 L334.00,1000.00 L334.00,1001.00 L335.00,1001.00 L336.00,1002.00 L336.00,1003.00 L337.00,1003.00 L338.00,1004.00 L338.00,1005.00 L341.00,1005.00 L342.00,1006.00 L342.00,1007.00 L343.00,1007.00 L344.00,1008.00 L344.00,1009.00 L345.00,1009.00 L346.00,1010.00 L346.00,1011.00 L349.00,1011.00 L350.00,1012.00 L350.00,1013.00 L353.00,1013.00 L354.00,1014.00 L354.00,1015.00 L357.00,1015.00 L358.00,1016.00 L358.00,1017.00 L363.00,1017.00 L364.00,1018.00 L364.00,1019.00 L377.00,1019.00 L378.00,1020.00 L378.00,1021.00 L481.00,1021.00 L482.00,1022.00 L482.00,1023.00 L511.00,1023.00 L512.00,1024.00 L512.00,1025.00 L513.00,1025.00 L514.00,1026.00 L514.00,1111.00 L515.00,1111.00 L516.00,1112.00 L516.00,1481.00 L517.00,1481.00 L518.00,1482.00 L518.00,1497.00 L519.00,1497.00 L520.00,1498.00 L520.00,1503.00 L521.00,1503.00 L522.00,1504.00 L522.00,1507.00 L523.00,1507.00 L524.00,1508.00 L524.00,1511.00 L525.00,1511.00 L526.00,1512.00 L526.00,1513.00 L527.00,1513.00 L528.00,1514.00 L528.00,1515.00 L529.00,1515.00 L530.00,1516.00 L530.00,1517.00 L531.00,1517.00 L532.00,1518.00 L532.00,1521.00 L533.00,1521.00 L534.00,1522.00 L534.00,1523.00 L535.00,1523.00 L536.00,1524.00 L536.00,1525.00 L537.00,1525.00 L538.00,1526.00 L538.00,1527.00 L541.00,1527.00 L542.00,1528.00 L542.00,1529.00 L543.00,1529.00 L544.00,1530.00 L544.00,1531.00 L545.00,1531.00 L546.00,1532.00 L546.00,1533.00 L547.00,1533.00 L548.00,1534.00 L548.00,1535.00 L551.00,1535.00 L552.00,1536.00 L552.00,1537.00 L555.00,1537.00 L556.00,1538.00 L556.00,1539.00 L569.00,1539.00 L570.00,1540.00 L570.00,1541.00 L583.00,1541.00 L583.00,1540.00 L584.00,1539.00 L599.00,1539.00 L599.00,1538.00 L600.00,1537.00 L605.00,1537.00 L605.00,1536.00 L606.00,1535.00 L611.00,1535.00 L611.00,1534.00 L612.00,1533.00 L617.00,1533.00 L617.00,1532.00 L618.00,1531.00 L621.00,1531.00 L621.00,1530.00 L622.00,1529.00 L623.00,1529.00 L623.00,1528.00 L624.00,1527.00 L625.00,1527.00 L625.00,1524.00 L626.00,1523.00 L627.00,1523.00 L627.00,1522.00 L628.00,1521.00 L629.00,1521.00 L629.00,1520.00 L630.00,1519.00 L631.00,1519.00 L631.00,1516.00 L632.00,1515.00 L633.00,1515.00 L633.00,1512.00 L634.00,1511.00 L635.00,1511.00 L635.00,1508.00 L636.00,1507.00 L637.00,1507.00 L637.00,1504.00 L638.00,1503.00 L639.00,1503.00 L639.00,1498.00 L640.00,1497.00 L641.00,1497.00 L641.00,1490.00 L642.00,1489.00 L643.00,1489.00 L643.00,1480.00 L644.00,1479.00 L645.00,1479.00 L645.00,1216.00 L644.00,1216.00 L643.00,1215.00 L643.00,1022.00 L644.00,1021.00 L645.00,1021.00 L645.00,1020.00 L646.00,1019.00 L647.00,1019.00 L647.00,1018.00 L648.00,1017.00 L695.00,1017.00 L696.00,1018.00 L696.00,1019.00 L797.00,1019.00 L797.00,1018.00 L798.00,1017.00 L807.00,1017.00 L807.00,1016.00 L808.00,1015.00 L811.00,1015.00 L811.00,1014.00 L812.00,1013.00 L813.00,1013.00 L813.00,1012.00 L814.00,1011.00 L817.00,1011.00 L817.00,1010.00 L818.00,1009.00 L819.00,1009.00 L819.00,1008.00 L820.00,1007.00 L821.00,1007.00 L821.00,1006.00 L822.00,1005.00 L823.00,1005.00 L823.00,1004.00 L824.00,1003.00 L825.00,1003.00 L825.00,1002.00 L826.00,1001.00 L827.00,1001.00 L827.00,1000.00 L828.00,999.00 L829.00,999.00 L829.00,996.00 L830.00,995.00 L831.00,995.00 L831.00,994.00 L832.00,993.00 L833.00,993.00 L833.00,990.00 L834.00,989.00 L835.00,989.00 L835.00,988.00 L836.00,987.00 L837.00,987.00 L837.00,984.00 L838.00,983.00 L839.00,983.00 L839.00,978.00 L840.00,977.00 L841.00,977.00 L841.00,944.00 L840.00,944.00 L839.00,943.00 L839.00,934.00 L838.00,934.00 L837.00,933.00 L837.00,928.00 L836.00,928.00 L835.00,927.00 L835.00,924.00 L834.00,924.00 L833.00,923.00 L833.00,922.00 L832.00,922.00 L831.00,921.00 L831.00,918.00 L830.00,918.00 L829.00,917.00 L829.00,916.00 L828.00,916.00 L827.00,915.00 L827.00,914.00 L824.00,914.00 L823.00,913.00 L823.00,912.00 L822.00,912.00 L821.00,911.00 L821.00,910.00 L820.00,910.00 L819.00,909.00 L819.00,908.00 L818.00,908.00 L817.00,907.00 L817.00,906.00 L814.00,906.00 L813.00,905.00 L813.00,904.00 L810.00,904.00 L809.00,903.00 L809.00,902.00 L804.00,902.00 L803.00,901.00 L803.00,900.00 L798.00,900.00 L797.00,899.00 L797.00,898.00 L786.00,898.00 L785.00,897.00 L785.00,896.00 L694.00,896.00 L693.00,895.00 L693.00,894.00 L652.00,894.00 L651.00,893.00 L651.00,892.00 L650.00,892.00 L649.00,891.00 L649.00,890.00 L648.00,890.00 L647.00,889.00 L647.00,864.00 L646.00,864.00 L645.00,863.00 L645.00,840.00 L644.00,840.00 L643.00,839.00 L643.00,828.00 L642.00,828.00 L641.00,827.00 L641.00,824.00 L640.00,824.00 L639.00,823.00 L639.00,818.00 L638.00,818.00 L637.00,817.00 L637.00,816.00 L636.00,816.00 L635.00,815.00 L635.00,812.00 L634.00,812.00 L633.00,811.00 L633.00,808.00 L632.00,808.00 L631.00,807.00 L631.00,806.00 L630.00,806.00 L629.00,805.00 L629.00,804.00 L628.00,804.00 L627.00,803.00 L627.00,802.00 L626.00,802.00 L625.00,801.00 L625.00,800.00 L624.00,800.00 L623.00,799.00 L623.00,798.00 L622.00,798.00 L621.00,797.00 L621.00,796.00 L620.00,796.00 L619.00,795.00 L619.00,794.00 L618.00,794.00 L617.00,793.00 L617.00,792.00 L616.00,792.00 L615.00,791.00 L615.00,790.00 L612.00,790.00 L611.00,789.00 L611.00,788.00 L608.00,788.00 L607.00,787.00 L607.00,786.00 L602.00,786.00 L601.00,785.00 L601.00,784.00 L592.00,784.00 L591.00,783.00 L591.00,782.00 L568.00,782.00 Z M1564.00,622.00 L1564.00,623.00 L1563.00,624.00 L1196.00,624.00 L1196.00,625.00 L1195.00,626.00 L1188.00,626.00 L1188.00,627.00 L1187.00,628.00 L1182.00,628.00 L1182.00,629.00 L1181.00,630.00 L1176.00,630.00 L1176.00,631.00 L1175.00,632.00 L1174.00,632.00 L1174.00,633.00 L1173.00,634.00 L1170.00,634.00 L1170.00,635.00 L1169.00,636.00 L1166.00,636.00 L1166.00,637.00 L1165.00,638.00 L1164.00,638.00 L1164.00,639.00 L1163.00,640.00 L1162.00,640.00 L1162.00,641.00 L1161.00,642.00 L1160.00,642.00 L1160.00,643.00 L1159.00,644.00 L1158.00,644.00 L1158.00,645.00 L1157.00,646.00 L1156.00,646.00 L1156.00,647.00 L1155.00,648.00 L1154.00,648.00 L1154.00,651.00 L1153.00,652.00 L1152.00,652.00 L1152.00,655.00 L1151.00,656.00 L1150.00,656.00 L1150.00,659.00 L1149.00,660.00 L1148.00,660.00 L1148.00,671.00 L1147.00,672.00 L1146.00,672.00 L1146.00,713.00 L1147.00,713.00 L1148.00,714.00 L1148.00,721.00 L1147.00,722.00 L1146.00,722.00 L1146.00,759.00 L1147.00,759.00 L1148.00,760.00 L1148.00,773.00 L1149.00,773.00 L1150.00,774.00 L1150.00,779.00 L1151.00,779.00 L1152.00,780.00 L1152.00,785.00 L1153.00,785.00 L1154.00,786.00 L1154.00,789.00 L1155.00,789.00 L1156.00,790.00 L1156.00,791.00 L1157.00,791.00 L1158.00,792.00 L1158.00,795.00 L1159.00,795.00 L1160.00,796.00 L1160.00,797.00 L1163.00,797.00 L1164.00,798.00 L1164.00,799.00 L1165.00,799.00 L1166.00,800.00 L1166.00,801.00 L1169.00,801.00 L1170.00,802.00 L1170.00,803.00 L1173.00,803.00 L1174.00,804.00 L1174.00,805.00 L1177.00,805.00 L1178.00,806.00 L1178.00,807.00 L1183.00,807.00 L1184.00,808.00 L1184.00,809.00 L1191.00,809.00 L1192.00,810.00 L1192.00,811.00 L1225.00,811.00 L1225.00,810.00 L1226.00,809.00 L1231.00,809.00 L1231.00,808.00 L1232.00,807.00 L1237.00,807.00 L1237.00,806.00 L1238.00,805.00 L1241.00,805.00 L1241.00,804.00 L1242.00,803.00 L1245.00,803.00 L1245.00,802.00 L1246.00,801.00 L1247.00,801.00 L1247.00,800.00 L1248.00,799.00 L1251.00,799.00 L1251.00,798.00 L1252.00,797.00 L1253.00,797.00 L1253.00,796.00 L1254.00,795.00 L1255.00,795.00 L1255.00,794.00 L1256.00,793.00 L1257.00,793.00 L1257.00,792.00 L1258.00,791.00 L1259.00,791.00 L1259.00,788.00 L1260.00,787.00 L1261.00,787.00 L1261.00,782.00 L1262.00,781.00 L1263.00,781.00 L1263.00,778.00 L1264.00,777.00 L1265.00,777.00 L1265.00,774.00 L1266.00,773.00 L1267.00,773.00 L1267.00,770.00 L1268.00,769.00 L1269.00,769.00 L1269.00,764.00 L1270.00,763.00 L1271.00,763.00 L1271.00,760.00 L1272.00,759.00 L1273.00,759.00 L1273.00,756.00 L1274.00,755.00 L1275.00,755.00 L1275.00,752.00 L1276.00,751.00 L1279.00,751.00 L1279.00,750.00 L1280.00,749.00 L1855.00,749.00 L1856.00,750.00 L1856.00,751.00 L1857.00,751.00 L1858.00,752.00 L1858.00,753.00 L1859.00,753.00 L1860.00,754.00 L1860.00,757.00 L1861.00,757.00 L1862.00,758.00 L1862.00,763.00 L1863.00,763.00 L1864.00,764.00 L1864.00,769.00 L1865.00,769.00 L1866.00,770.00 L1866.00,775.00 L1867.00,775.00 L1868.00,776.00 L1868.00,781.00 L1869.00,781.00 L1870.00,782.00 L1870.00,787.00 L1871.00,787.00 L1872.00,788.00 L1872.00,791.00 L1873.00,791.00 L1874.00,792.00 L1874.00,793.00 L1875.00,793.00 L1876.00,794.00 L1876.00,795.00 L1877.00,795.00 L1878.00,796.00 L1878.00,797.00 L1879.00,797.00 L1880.00,798.00 L1880.00,799.00 L1883.00,799.00 L1884.00,800.00 L1884.00,801.00 L1885.00,801.00 L1886.00,802.00 L1886.00,803.00 L1889.00,803.00 L1890.00,804.00 L1890.00,805.00 L1893.00,805.00 L1894.00,806.00 L1894.00,807.00 L1897.00,807.00 L1898.00,808.00 L1898.00,809.00 L1901.00,809.00 L1902.00,810.00 L1902.00,811.00 L1917.00,811.00 L1918.00,812.00 L1918.00,813.00 L1933.00,813.00 L1933.00,812.00 L1934.00,811.00 L1947.00,811.00 L1947.00,810.00 L1948.00,809.00 L1951.00,809.00 L1951.00,808.00 L1952.00,807.00 L1957.00,807.00 L1957.00,806.00 L1958.00,805.00 L1961.00,805.00 L1961.00,804.00 L1962.00,803.00 L1963.00,803.00 L1963.00,802.00 L1964.00,801.00 L1965.00,801.00 L1965.00,800.00 L1966.00,799.00 L1967.00,799.00 L1967.00,798.00 L1968.00,797.00 L1969.00,797.00 L1969.00,796.00 L1970.00,795.00 L1971.00,795.00 L1971.00,792.00 L1972.00,791.00 L1973.00,791.00 L1973.00,790.00 L1974.00,789.00 L1975.00,789.00 L1975.00,786.00 L1976.00,785.00 L1977.00,785.00 L1977.00,782.00 L1978.00,781.00 L1979.00,781.00 L1979.00,778.00 L1980.00,777.00 L1981.00,777.00 L1981.00,772.00 L1982.00,771.00 L1983.00,771.00 L1983.00,766.00 L1984.00,765.00 L1985.00,765.00 L1985.00,760.00 L1986.00,759.00 L1987.00,759.00 L1987.00,744.00 L1988.00,743.00 L1989.00,743.00 L1989.00,692.00 L1988.00,692.00 L1987.00,691.00 L1987.00,676.00 L1986.00,676.00 L1985.00,675.00 L1985.00,668.00 L1984.00,668.00 L1983.00,667.00 L1983.00,662.00 L1982.00,662.00 L1981.00,661.00 L1981.00,658.00 L1980.00,658.00 L1979.00,657.00 L1979.00,654.00 L1978.00,654.00 L1977.00,653.00 L1977.00,650.00 L1976.00,650.00 L1975.00,649.00 L1975.00,648.00 L1974.00,648.00 L1973.00,647.00 L1973.00,644.00 L1972.00,644.00 L1971.00,643.00 L1971.00,642.00 L1968.00,642.00 L1967.00,641.00 L1967.00,640.00 L1966.00,640.00 L1965.00,639.00 L1965.00,638.00 L1964.00,638.00 L1963.00,637.00 L1963.00,636.00 L1960.00,636.00 L1959.00,635.00 L1959.00,634.00 L1958.00,634.00 L1957.00,633.00 L1957.00,632.00 L1954.00,632.00 L1953.00,631.00 L1953.00,630.00 L1950.00,630.00 L1949.00,629.00 L1949.00,628.00 L1944.00,628.00 L1943.00,627.00 L1943.00,626.00 L1938.00,626.00 L1937.00,625.00 L1937.00,624.00 L1928.00,624.00 L1927.00,623.00 L1927.00,622.00 L1564.00,622.00 Z M788.00,622.00 L788.00,623.00 L787.00,624.00 L534.00,624.00 L534.00,625.00 L533.00,626.00 L524.00,626.00 L524.00,627.00 L523.00,628.00 L518.00,628.00 L518.00,629.00 L517.00,630.00 L514.00,630.00 L514.00,631.00 L513.00,632.00 L512.00,632.00 L512.00,633.00 L511.00,634.00 L510.00,634.00 L510.00,635.00 L509.00,636.00 L508.00,636.00 L508.00,637.00 L507.00,638.00 L506.00,638.00 L506.00,639.00 L505.00,640.00 L504.00,640.00 L504.00,641.00 L503.00,642.00 L502.00,642.00 L502.00,643.00 L501.00,644.00 L500.00,644.00 L500.00,645.00 L499.00,646.00 L498.00,646.00 L498.00,649.00 L497.00,650.00 L496.00,650.00 L496.00,651.00 L495.00,652.00 L494.00,652.00 L494.00,655.00 L493.00,656.00 L492.00,656.00 L492.00,661.00 L491.00,662.00 L490.00,662.00 L490.00,671.00 L489.00,672.00 L488.00,672.00 L488.00,689.00 L489.00,689.00 L490.00,690.00 L490.00,703.00 L491.00,703.00 L492.00,704.00 L492.00,709.00 L493.00,709.00 L494.00,710.00 L494.00,715.00 L495.00,715.00 L496.00,716.00 L496.00,719.00 L497.00,719.00 L498.00,720.00 L498.00,721.00 L499.00,721.00 L500.00,722.00 L500.00,725.00 L501.00,725.00 L502.00,726.00 L502.00,727.00 L503.00,727.00 L504.00,728.00 L504.00,729.00 L505.00,729.00 L506.00,730.00 L506.00,731.00 L509.00,731.00 L510.00,732.00 L510.00,733.00 L511.00,733.00 L512.00,734.00 L512.00,735.00 L515.00,735.00 L516.00,736.00 L516.00,737.00 L519.00,737.00 L520.00,738.00 L520.00,739.00 L523.00,739.00 L524.00,740.00 L524.00,741.00 L529.00,741.00 L530.00,742.00 L530.00,743.00 L539.00,743.00 L540.00,744.00 L540.00,745.00 L609.00,745.00 L610.00,746.00 L610.00,747.00 L841.00,747.00 L842.00,748.00 L842.00,749.00 L849.00,749.00 L850.00,750.00 L850.00,751.00 L855.00,751.00 L856.00,752.00 L856.00,753.00 L859.00,753.00 L860.00,754.00 L860.00,755.00 L861.00,755.00 L862.00,756.00 L862.00,757.00 L865.00,757.00 L866.00,758.00 L866.00,761.00 L867.00,761.00 L868.00,762.00 L868.00,763.00 L869.00,763.00 L870.00,764.00 L870.00,767.00 L871.00,767.00 L872.00,768.00 L872.00,987.00 L873.00,987.00 L874.00,988.00 L874.00,1491.00 L875.00,1491.00 L876.00,1492.00 L876.00,1499.00 L877.00,1499.00 L878.00,1500.00 L878.00,1503.00 L879.00,1503.00 L880.00,1504.00 L880.00,1507.00 L881.00,1507.00 L882.00,1508.00 L882.00,1511.00 L883.00,1511.00 L884.00,1512.00 L884.00,1515.00 L885.00,1515.00 L886.00,1516.00 L886.00,1517.00 L887.00,1517.00 L888.00,1518.00 L888.00,1519.00 L889.00,1519.00 L890.00,1520.00 L890.00,1521.00 L891.00,1521.00 L892.00,1522.00 L892.00,1523.00 L893.00,1523.00 L894.00,1524.00 L894.00,1525.00 L895.00,1525.00 L896.00,1526.00 L896.00,1527.00 L897.00,1527.00 L898.00,1528.00 L898.00,1529.00 L899.00,1529.00 L900.00,1530.00 L900.00,1531.00 L901.00,1531.00 L902.00,1532.00 L902.00,1533.00 L905.00,1533.00 L906.00,1534.00 L906.00,1535.00 L909.00,1535.00 L910.00,1536.00 L910.00,1537.00 L917.00,1537.00 L918.00,1538.00 L918.00,1539.00 L933.00,1539.00 L934.00,1540.00 L934.00,1541.00 L941.00,1541.00 L941.00,1540.00 L942.00,1539.00 L959.00,1539.00 L959.00,1538.00 L960.00,1537.00 L967.00,1537.00 L967.00,1536.00 L968.00,1535.00 L971.00,1535.00 L971.00,1534.00 L972.00,1533.00 L973.00,1533.00 L973.00,1532.00 L974.00,1531.00 L975.00,1531.00 L975.00,1530.00 L976.00,1529.00 L977.00,1529.00 L977.00,1528.00 L978.00,1527.00 L979.00,1527.00 L979.00,1526.00 L980.00,1525.00 L981.00,1525.00 L981.00,1522.00 L982.00,1521.00 L983.00,1521.00 L983.00,1520.00 L984.00,1519.00 L985.00,1519.00 L985.00,1518.00 L986.00,1517.00 L987.00,1517.00 L987.00,1514.00 L988.00,1513.00 L989.00,1513.00 L989.00,1512.00 L990.00,1511.00 L991.00,1511.00 L991.00,1508.00 L992.00,1507.00 L993.00,1507.00 L993.00,1504.00 L994.00,1503.00 L995.00,1503.00 L995.00,1500.00 L996.00,1499.00 L997.00,1499.00 L997.00,1494.00 L998.00,1493.00 L999.00,1493.00 L999.00,1484.00 L1000.00,1483.00 L1001.00,1483.00 L1001.00,1192.00 L1000.00,1192.00 L999.00,1191.00 L999.00,712.00 L998.00,712.00 L997.00,711.00 L997.00,698.00 L996.00,698.00 L995.00,697.00 L995.00,690.00 L994.00,690.00 L993.00,689.00 L993.00,684.00 L992.00,684.00 L991.00,683.00 L991.00,678.00 L990.00,678.00 L989.00,677.00 L989.00,674.00 L988.00,674.00 L987.00,673.00 L987.00,668.00 L986.00,668.00 L985.00,667.00 L985.00,664.00 L984.00,664.00 L983.00,663.00 L983.00,660.00 L982.00,660.00 L981.00,659.00 L981.00,658.00 L980.00,658.00 L979.00,657.00 L979.00,654.00 L978.00,654.00 L977.00,653.00 L977.00,652.00 L976.00,652.00 L975.00,651.00 L975.00,650.00 L974.00,650.00 L973.00,649.00 L973.00,648.00 L972.00,648.00 L971.00,647.00 L971.00,646.00 L970.00,646.00 L969.00,645.00 L969.00,644.00 L966.00,644.00 L965.00,643.00 L965.00,642.00 L964.00,642.00 L963.00,641.00 L963.00,640.00 L960.00,640.00 L959.00,639.00 L959.00,638.00 L958.00,638.00 L957.00,637.00 L957.00,636.00 L954.00,636.00 L953.00,635.00 L953.00,634.00 L950.00,634.00 L949.00,633.00 L949.00,632.00 L946.00,632.00 L945.00,631.00 L945.00,630.00 L942.00,630.00 L941.00,629.00 L941.00,628.00 L936.00,628.00 L935.00,627.00 L935.00,626.00 L928.00,626.00 L927.00,625.00 L927.00,624.00 L916.00,624.00 L915.00,623.00 L915.00,622.00 L788.00,622.00 Z M214.00,622.00 L214.00,623.00 L213.00,624.00 L204.00,624.00 L204.00,625.00 L203.00,626.00 L198.00,626.00 L198.00,627.00 L197.00,628.00 L192.00,628.00 L192.00,629.00 L191.00,630.00 L188.00,630.00 L188.00,631.00 L187.00,632.00 L186.00,632.00 L186.00,633.00 L185.00,634.00 L182.00,634.00 L182.00,635.00 L181.00,636.00 L180.00,636.00 L180.00,637.00 L179.00,638.00 L176.00,638.00 L176.00,639.00 L175.00,640.00 L174.00,640.00 L174.00,641.00 L173.00,642.00 L172.00,642.00 L172.00,643.00 L171.00,644.00 L170.00,644.00 L170.00,647.00 L169.00,648.00 L168.00,648.00 L168.00,649.00 L167.00,650.00 L166.00,650.00 L166.00,653.00 L165.00,654.00 L164.00,654.00 L164.00,659.00 L163.00,660.00 L162.00,660.00 L162.00,669.00 L161.00,670.00 L160.00,670.00 L160.00,845.00 L161.00,845.00 L162.00,846.00 L162.00,1489.00 L163.00,1489.00 L164.00,1490.00 L164.00,1507.00 L165.00,1507.00 L166.00,1508.00 L166.00,1511.00 L167.00,1511.00 L168.00,1512.00 L168.00,1513.00 L169.00,1513.00 L170.00,1514.00 L170.00,1517.00 L171.00,1517.00 L172.00,1518.00 L172.00,1519.00 L173.00,1519.00 L174.00,1520.00 L174.00,1521.00 L175.00,1521.00 L176.00,1522.00 L176.00,1523.00 L177.00,1523.00 L178.00,1524.00 L178.00,1525.00 L179.00,1525.00 L180.00,1526.00 L180.00,1527.00 L181.00,1527.00 L182.00,1528.00 L182.00,1529.00 L185.00,1529.00 L186.00,1530.00 L186.00,1531.00 L187.00,1531.00 L188.00,1532.00 L188.00,1533.00 L191.00,1533.00 L192.00,1534.00 L192.00,1535.00 L195.00,1535.00 L196.00,1536.00 L196.00,1537.00 L201.00,1537.00 L202.00,1538.00 L202.00,1539.00 L207.00,1539.00 L208.00,1540.00 L208.00,1541.00 L233.00,1541.00 L233.00,1540.00 L234.00,1539.00 L243.00,1539.00 L243.00,1538.00 L244.00,1537.00 L249.00,1537.00 L249.00,1536.00 L250.00,1535.00 L255.00,1535.00 L255.00,1534.00 L256.00,1533.00 L259.00,1533.00 L259.00,1532.00 L260.00,1531.00 L263.00,1531.00 L263.00,1530.00 L264.00,1529.00 L265.00,1529.00 L265.00,1528.00 L266.00,1527.00 L267.00,1527.00 L267.00,1526.00 L268.00,1525.00 L269.00,1525.00 L269.00,1524.00 L270.00,1523.00 L271.00,1523.00 L271.00,1522.00 L272.00,1521.00 L273.00,1521.00 L273.00,1520.00 L274.00,1519.00 L275.00,1519.00 L275.00,1516.00 L276.00,1515.00 L277.00,1515.00 L277.00,1512.00 L278.00,1511.00 L279.00,1511.00 L279.00,1506.00 L280.00,1505.00 L281.00,1505.00 L281.00,1498.00 L282.00,1497.00 L283.00,1497.00 L283.00,1438.00 L284.00,1437.00 L285.00,1437.00 L285.00,694.00 L284.00,694.00 L283.00,693.00 L283.00,678.00 L282.00,678.00 L281.00,677.00 L281.00,670.00 L280.00,670.00 L279.00,669.00 L279.00,664.00 L278.00,664.00 L277.00,663.00 L277.00,658.00 L276.00,658.00 L275.00,657.00 L275.00,652.00 L274.00,652.00 L273.00,651.00 L273.00,648.00 L272.00,648.00 L271.00,647.00 L271.00,646.00 L270.00,646.00 L269.00,645.00 L269.00,642.00 L268.00,642.00 L267.00,641.00 L267.00,640.00 L266.00,640.00 L265.00,639.00 L265.00,638.00 L264.00,638.00 L263.00,637.00 L263.00,636.00 L262.00,636.00 L261.00,635.00 L261.00,634.00 L260.00,634.00 L259.00,633.00 L259.00,632.00 L258.00,632.00 L257.00,631.00 L257.00,630.00 L256.00,630.00 L255.00,629.00 L255.00,628.00 L252.00,628.00 L251.00,627.00 L251.00,626.00 L248.00,626.00 L247.00,625.00 L247.00,624.00 L234.00,624.00 L233.00,623.00 L233.00,622.00 L214.00,622.00 Z M364.00,620.00 L364.00,621.00 L363.00,622.00 L356.00,622.00 L356.00,623.00 L355.00,624.00 L348.00,624.00 L348.00,625.00 L347.00,626.00 L346.00,626.00 L346.00,627.00 L345.00,628.00 L342.00,628.00 L342.00,629.00 L341.00,630.00 L340.00,630.00 L340.00,631.00 L339.00,632.00 L338.00,632.00 L338.00,635.00 L337.00,636.00 L336.00,636.00 L336.00,637.00 L335.00,638.00 L334.00,638.00 L334.00,639.00 L333.00,640.00 L332.00,640.00 L332.00,641.00 L331.00,642.00 L330.00,642.00 L330.00,645.00 L329.00,646.00 L328.00,646.00 L328.00,649.00 L327.00,650.00 L326.00,650.00 L326.00,653.00 L325.00,654.00 L324.00,654.00 L324.00,657.00 L323.00,658.00 L322.00,658.00 L322.00,661.00 L321.00,662.00 L320.00,662.00 L320.00,667.00 L319.00,668.00 L318.00,668.00 L318.00,699.00 L319.00,699.00 L320.00,700.00 L320.00,707.00 L321.00,707.00 L322.00,708.00 L322.00,711.00 L323.00,711.00 L324.00,712.00 L324.00,717.00 L325.00,717.00 L326.00,718.00 L326.00,721.00 L327.00,721.00 L328.00,722.00 L328.00,723.00 L329.00,723.00 L330.00,724.00 L330.00,727.00 L331.00,727.00 L332.00,728.00 L332.00,729.00 L333.00,729.00 L334.00,730.00 L334.00,731.00 L335.00,731.00 L336.00,732.00 L336.00,733.00 L337.00,733.00 L338.00,734.00 L338.00,735.00 L339.00,735.00 L340.00,736.00 L340.00,737.00 L341.00,737.00 L342.00,738.00 L342.00,739.00 L345.00,739.00 L346.00,740.00 L346.00,741.00 L347.00,741.00 L348.00,742.00 L348.00,743.00 L351.00,743.00 L352.00,744.00 L352.00,745.00 L357.00,745.00 L358.00,746.00 L358.00,747.00 L363.00,747.00 L364.00,748.00 L364.00,749.00 L373.00,749.00 L374.00,750.00 L374.00,751.00 L401.00,751.00 L401.00,750.00 L402.00,749.00 L411.00,749.00 L411.00,748.00 L412.00,747.00 L417.00,747.00 L417.00,746.00 L418.00,745.00 L421.00,745.00 L421.00,744.00 L422.00,743.00 L425.00,743.00 L425.00,742.00 L426.00,741.00 L429.00,741.00 L429.00,740.00 L430.00,739.00 L431.00,739.00 L431.00,738.00 L432.00,737.00 L435.00,737.00 L435.00,736.00 L436.00,735.00 L437.00,735.00 L437.00,734.00 L438.00,733.00 L439.00,733.00 L439.00,732.00 L440.00,731.00 L441.00,731.00 L441.00,730.00 L442.00,729.00 L443.00,729.00 L443.00,726.00 L444.00,725.00 L445.00,725.00 L445.00,724.00 L446.00,723.00 L447.00,723.00 L447.00,720.00 L448.00,719.00 L449.00,719.00 L449.00,716.00 L450.00,715.00 L451.00,715.00 L451.00,708.00 L452.00,707.00 L453.00,707.00 L453.00,666.00 L452.00,666.00 L451.00,665.00 L451.00,656.00 L450.00,656.00 L449.00,655.00 L449.00,652.00 L448.00,652.00 L447.00,651.00 L447.00,648.00 L446.00,648.00 L445.00,647.00 L445.00,646.00 L444.00,646.00 L443.00,645.00 L443.00,644.00 L442.00,644.00 L441.00,643.00 L441.00,642.00 L440.00,642.00 L439.00,641.00 L439.00,640.00 L438.00,640.00 L437.00,639.00 L437.00,638.00 L436.00,638.00 L435.00,637.00 L435.00,636.00 L434.00,636.00 L433.00,635.00 L433.00,634.00 L432.00,634.00 L431.00,633.00 L431.00,632.00 L428.00,632.00 L427.00,631.00 L427.00,630.00 L426.00,630.00 L425.00,629.00 L425.00,628.00 L424.00,628.00 L423.00,627.00 L423.00,626.00 L420.00,626.00 L419.00,625.00 L419.00,624.00 L414.00,624.00 L413.00,623.00 L413.00,622.00 L404.00,622.00 L403.00,621.00 L403.00,620.00 L364.00,620.00 Z"/>
</g>
</svg>