<?xml version="1.0" encoding="UTF-8"?>
<svg xmlns="http://www.w3.org/2000/svg" version="1.1" width="1080" height="1080" viewBox="0 0 2160 2160" style="background: transparent;">

<g id="color_1" fill="#FFFFFF" stroke="#FFFFFF" stroke-width="2.0" stroke-linejoin="round" vector-effect="non-scaling-stroke">
<path d="M1497.00,270.00 L1494.00,270.00 L1493.00,268.00 L1490.00,268.00 L1489.00,266.00 L1482.00,264.00 L1479.00,260.00 L1474.00,260.00 L1471.00,256.00 L1468.00,256.00 L1467.00,254.00 L1462.00,254.00 L1461.00,252.00 L1458.00,252.00 L1457.00,250.00 L1454.00,250.00 L1449.00,246.00 L1444.00,246.00 L1439.00,242.00 L1428.00,240.00 L1423.00,236.00 L1416.00,236.00 L1415.00,234.00 L1410.00,234.00 L1409.00,232.00 L1404.00,232.00 L1403.00,230.00 L1394.00,230.00 L1393.00,228.00 L1388.00,228.00 L1387.00,226.00 L1378.00,226.00 L1377.00,224.00 L1368.00,224.00 L1367.00,222.00 L1356.00,222.00 L1355.00,220.00 L1332.00,220.00 L1331.00,218.00 L1318.00,218.00 L1317.00,216.00 L1258.00,216.00 L1257.00,218.00 L1238.00,218.00 L1237.00,220.00 L1222.00,220.00 L1221.00,222.00 L1208.00,222.00 L1207.00,224.00 L1198.00,224.00 L1197.00,226.00 L1182.00,226.00 L1177.00,230.00 L1166.00,230.00 L1165.00,232.00 L1160.00,232.00 L1159.00,234.00 L1152.00,234.00 L1151.00,236.00 L1142.00,236.00 L1141.00,238.00 L1136.00,238.00 L1135.00,240.00 L1128.00,240.00 L1127.00,242.00 L1122.00,242.00 L1121.00,244.00 L1110.00,246.00 L1105.00,250.00 L1098.00,250.00 L1097.00,252.00 L1094.00,252.00 L1093.00,254.00 L1088.00,254.00 L1087.00,256.00 L1080.00,256.00 L1075.00,260.00 L1070.00,260.00 L1067.00,264.00 L1062.00,264.00 L1061.00,266.00 L1058.00,266.00 L1053.00,270.00 L1048.00,270.00 L1047.00,272.00 L1044.00,272.00 L1039.00,276.00 L1034.00,276.00 L1029.00,280.00 L1024.00,280.00 L1021.00,284.00 L1018.00,284.00 L1017.00,286.00 L1014.00,286.00 L1013.00,288.00 L1006.00,290.00 L1003.00,294.00 L1000.00,294.00 L999.00,296.00 L996.00,296.00 L995.00,298.00 L988.00,300.00 L985.00,304.00 L980.00,304.00 L977.00,308.00 L970.00,310.00 L967.00,314.00 L964.00,314.00 L955.00,322.00 L948.00,324.00 L939.00,332.00 L932.00,334.00 L927.00,340.00 L924.00,340.00 L919.00,346.00 L916.00,346.00 L911.00,352.00 L908.00,352.00 L901.00,360.00 L898.00,360.00 L893.00,366.00 L890.00,366.00 L883.00,374.00 L879.00,369.00 L881.00,367.00 L881.00,348.00 L883.00,347.00 L883.00,342.00 L881.00,341.00 L881.00,332.00 L879.00,331.00 L879.00,328.00 L869.00,318.00 L866.00,318.00 L861.00,314.00 L854.00,314.00 L853.00,312.00 L850.00,312.00 L849.00,310.00 L846.00,310.00 L845.00,308.00 L842.00,308.00 L837.00,304.00 L832.00,304.00 L831.00,302.00 L826.00,302.00 L825.00,300.00 L818.00,300.00 L817.00,298.00 L806.00,298.00 L805.00,296.00 L788.00,296.00 L787.00,294.00 L732.00,294.00 L731.00,296.00 L720.00,296.00 L719.00,298.00 L712.00,298.00 L711.00,300.00 L706.00,300.00 L701.00,304.00 L690.00,304.00 L689.00,306.00 L682.00,308.00 L680.00,310.00 L680.00,313.00 L676.00,316.00 L676.00,321.00 L672.00,326.00 L672.00,333.00 L668.00,338.00 L668.00,343.00 L666.00,344.00 L666.00,349.00 L664.00,350.00 L664.00,355.00 L662.00,356.00 L662.00,363.00 L658.00,368.00 L658.00,375.00 L656.00,376.00 L656.00,381.00 L654.00,382.00 L654.00,387.00 L652.00,388.00 L652.00,395.00 L650.00,396.00 L650.00,401.00 L648.00,402.00 L648.00,409.00 L646.00,410.00 L646.00,417.00 L644.00,418.00 L644.00,425.00 L642.00,426.00 L642.00,435.00 L640.00,436.00 L640.00,441.00 L638.00,442.00 L638.00,451.00 L636.00,452.00 L636.00,457.00 L634.00,458.00 L634.00,467.00 L632.00,468.00 L632.00,475.00 L630.00,476.00 L630.00,483.00 L628.00,484.00 L628.00,493.00 L626.00,494.00 L626.00,499.00 L624.00,500.00 L624.00,511.00 L622.00,512.00 L622.00,521.00 L620.00,522.00 L620.00,531.00 L618.00,532.00 L618.00,545.00 L616.00,546.00 L616.00,553.00 L614.00,554.00 L612.00,577.00 L610.00,578.00 L610.00,587.00 L608.00,588.00 L608.00,601.00 L606.00,602.00 L606.00,611.00 L604.00,612.00 L604.00,629.00 L602.00,630.00 L602.00,639.00 L600.00,640.00 L598.00,671.00 L596.00,672.00 L596.00,683.00 L594.00,684.00 L594.00,701.00 L592.00,702.00 L592.00,715.00 L590.00,716.00 L590.00,733.00 L588.00,734.00 L588.00,755.00 L586.00,756.00 L586.00,767.00 L584.00,768.00 L584.00,789.00 L582.00,790.00 L582.00,803.00 L580.00,804.00 L578.00,847.00 L576.00,848.00 L576.00,863.00 L574.00,864.00 L574.00,887.00 L572.00,888.00 L572.00,903.00 L570.00,904.00 L570.00,923.00 L568.00,924.00 L568.00,941.00 L566.00,942.00 L566.00,959.00 L564.00,960.00 L564.00,981.00 L562.00,982.00 L562.00,997.00 L560.00,998.00 L560.00,1019.00 L558.00,1020.00 L558.00,1037.00 L556.00,1038.00 L556.00,1053.00 L554.00,1054.00 L554.00,1077.00 L552.00,1078.00 L552.00,1089.00 L550.00,1090.00 L550.00,1111.00 L548.00,1112.00 L548.00,1125.00 L546.00,1126.00 L546.00,1143.00 L544.00,1144.00 L544.00,1161.00 L542.00,1162.00 L542.00,1175.00 L540.00,1176.00 L540.00,1195.00 L538.00,1196.00 L538.00,1211.00 L536.00,1212.00 L536.00,1227.00 L534.00,1228.00 L534.00,1249.00 L532.00,1250.00 L532.00,1259.00 L530.00,1260.00 L530.00,1283.00 L528.00,1284.00 L528.00,1295.00 L526.00,1296.00 L526.00,1317.00 L524.00,1318.00 L524.00,1335.00 L522.00,1336.00 L522.00,1351.00 L520.00,1352.00 L520.00,1375.00 L518.00,1376.00 L518.00,1389.00 L516.00,1390.00 L516.00,1409.00 L514.00,1410.00 L514.00,1427.00 L512.00,1428.00 L512.00,1443.00 L510.00,1444.00 L510.00,1465.00 L508.00,1466.00 L508.00,1479.00 L506.00,1480.00 L506.00,1503.00 L504.00,1504.00 L504.00,1521.00 L502.00,1522.00 L502.00,1539.00 L500.00,1540.00 L500.00,1565.00 L498.00,1566.00 L498.00,1577.00 L496.00,1578.00 L496.00,1603.00 L494.00,1604.00 L494.00,1619.00 L492.00,1620.00 L490.00,1663.00 L488.00,1664.00 L488.00,1679.00 L486.00,1680.00 L486.00,1703.00 L484.00,1704.00 L484.00,1721.00 L482.00,1722.00 L482.00,1743.00 L480.00,1744.00 L480.00,1771.00 L478.00,1772.00 L478.00,1785.00 L476.00,1786.00 L476.00,1813.00 L474.00,1814.00 L474.00,1829.00 L472.00,1830.00 L472.00,1855.00 L470.00,1856.00 L470.00,1877.00 L468.00,1878.00 L468.00,1895.00 L466.00,1896.00 L466.00,1911.00 L468.00,1912.00 L468.00,1917.00 L470.00,1918.00 L472.00,1925.00 L484.00,1937.00 L487.00,1937.00 L488.00,1939.00 L491.00,1939.00 L496.00,1943.00 L515.00,1943.00 L520.00,1939.00 L531.00,1937.00 L536.00,1933.00 L541.00,1933.00 L546.00,1929.00 L557.00,1927.00 L562.00,1923.00 L569.00,1923.00 L574.00,1919.00 L579.00,1919.00 L584.00,1915.00 L589.00,1915.00 L590.00,1913.00 L595.00,1913.00 L600.00,1909.00 L611.00,1907.00 L616.00,1903.00 L623.00,1903.00 L628.00,1899.00 L633.00,1899.00 L638.00,1895.00 L649.00,1893.00 L654.00,1889.00 L661.00,1889.00 L666.00,1885.00 L677.00,1883.00 L682.00,1879.00 L687.00,1879.00 L688.00,1877.00 L691.00,1877.00 L692.00,1875.00 L697.00,1875.00 L702.00,1871.00 L713.00,1869.00 L714.00,1867.00 L717.00,1867.00 L718.00,1865.00 L723.00,1865.00 L728.00,1861.00 L733.00,1861.00 L734.00,1859.00 L739.00,1859.00 L744.00,1855.00 L749.00,1855.00 L750.00,1853.00 L753.00,1853.00 L758.00,1849.00 L765.00,1849.00 L768.00,1845.00 L775.00,1845.00 L776.00,1843.00 L779.00,1843.00 L780.00,1841.00 L785.00,1841.00 L786.00,1839.00 L789.00,1839.00 L794.00,1835.00 L801.00,1835.00 L802.00,1833.00 L805.00,1833.00 L810.00,1829.00 L815.00,1829.00 L820.00,1825.00 L825.00,1825.00 L828.00,1821.00 L831.00,1821.00 L838.00,1813.00 L845.00,1811.00 L853.00,1803.00 L853.00,1800.00 L857.00,1795.00 L857.00,1688.00 L855.00,1687.00 L855.00,1624.00 L853.00,1623.00 L853.00,1532.00 L851.00,1531.00 L851.00,1486.00 L849.00,1485.00 L849.00,1404.00 L847.00,1403.00 L847.00,1282.00 L845.00,1281.00 L845.00,1244.00 L847.00,1243.00 L847.00,1112.00 L849.00,1111.00 L849.00,1058.00 L851.00,1057.00 L851.00,1036.00 L853.00,1035.00 L853.00,998.00 L855.00,997.00 L855.00,984.00 L857.00,983.00 L857.00,958.00 L859.00,957.00 L859.00,936.00 L861.00,935.00 L861.00,924.00 L863.00,923.00 L863.00,904.00 L865.00,903.00 L865.00,890.00 L867.00,889.00 L867.00,874.00 L869.00,873.00 L869.00,860.00 L871.00,859.00 L871.00,850.00 L873.00,849.00 L873.00,834.00 L875.00,833.00 L875.00,826.00 L877.00,825.00 L877.00,812.00 L879.00,811.00 L879.00,802.00 L881.00,801.00 L881.00,792.00 L883.00,791.00 L883.00,780.00 L885.00,779.00 L885.00,774.00 L887.00,773.00 L887.00,762.00 L889.00,761.00 L889.00,752.00 L891.00,751.00 L891.00,744.00 L893.00,743.00 L893.00,736.00 L895.00,735.00 L895.00,728.00 L897.00,727.00 L897.00,720.00 L899.00,719.00 L899.00,712.00 L901.00,711.00 L901.00,704.00 L903.00,703.00 L903.00,694.00 L905.00,693.00 L905.00,688.00 L907.00,687.00 L907.00,680.00 L911.00,675.00 L913.00,660.00 L915.00,659.00 L915.00,654.00 L917.00,653.00 L917.00,646.00 L921.00,641.00 L921.00,634.00 L923.00,633.00 L923.00,628.00 L927.00,623.00 L927.00,616.00 L931.00,611.00 L931.00,606.00 L933.00,605.00 L933.00,602.00 L937.00,597.00 L937.00,592.00 L939.00,591.00 L939.00,588.00 L941.00,587.00 L941.00,584.00 L943.00,583.00 L943.00,580.00 L945.00,579.00 L945.00,576.00 L947.00,575.00 L947.00,572.00 L949.00,571.00 L951.00,564.00 L955.00,561.00 L957.00,554.00 L965.00,545.00 L967.00,538.00 L975.00,531.00 L975.00,528.00 L981.00,523.00 L981.00,520.00 L991.00,511.00 L991.00,508.00 L1008.00,491.00 L1011.00,491.00 L1022.00,479.00 L1025.00,479.00 L1032.00,471.00 L1035.00,471.00 L1038.00,467.00 L1045.00,465.00 L1048.00,461.00 L1051.00,461.00 L1054.00,457.00 L1061.00,455.00 L1064.00,451.00 L1069.00,451.00 L1072.00,447.00 L1075.00,447.00 L1076.00,445.00 L1081.00,445.00 L1086.00,441.00 L1091.00,441.00 L1094.00,437.00 L1101.00,437.00 L1102.00,435.00 L1107.00,435.00 L1112.00,431.00 L1119.00,431.00 L1120.00,429.00 L1127.00,429.00 L1128.00,427.00 L1135.00,427.00 L1136.00,425.00 L1147.00,425.00 L1148.00,423.00 L1155.00,423.00 L1156.00,421.00 L1177.00,421.00 L1178.00,419.00 L1237.00,419.00 L1238.00,421.00 L1261.00,421.00 L1262.00,423.00 L1267.00,423.00 L1268.00,425.00 L1279.00,425.00 L1280.00,427.00 L1287.00,427.00 L1288.00,429.00 L1293.00,429.00 L1294.00,431.00 L1301.00,431.00 L1306.00,435.00 L1317.00,437.00 L1318.00,439.00 L1321.00,439.00 L1322.00,441.00 L1325.00,441.00 L1330.00,445.00 L1335.00,445.00 L1336.00,447.00 L1339.00,447.00 L1348.00,455.00 L1351.00,455.00 L1352.00,457.00 L1359.00,459.00 L1364.00,465.00 L1367.00,465.00 L1372.00,471.00 L1375.00,471.00 L1382.00,479.00 L1385.00,479.00 L1408.00,502.00 L1408.00,505.00 L1420.00,516.00 L1420.00,519.00 L1424.00,522.00 L1424.00,525.00 L1430.00,530.00 L1430.00,533.00 L1438.00,542.00 L1438.00,545.00 L1440.00,546.00 L1442.00,553.00 L1446.00,556.00 L1446.00,559.00 L1448.00,560.00 L1448.00,563.00 L1450.00,564.00 L1450.00,567.00 L1452.00,568.00 L1452.00,571.00 L1454.00,572.00 L1454.00,575.00 L1458.00,580.00 L1458.00,585.00 L1462.00,590.00 L1462.00,595.00 L1464.00,596.00 L1464.00,599.00 L1468.00,604.00 L1468.00,611.00 L1472.00,616.00 L1472.00,623.00 L1474.00,624.00 L1474.00,629.00 L1476.00,630.00 L1476.00,637.00 L1478.00,638.00 L1478.00,645.00 L1480.00,646.00 L1480.00,653.00 L1482.00,654.00 L1482.00,663.00 L1484.00,664.00 L1484.00,671.00 L1486.00,672.00 L1486.00,685.00 L1488.00,686.00 L1488.00,701.00 L1490.00,702.00 L1490.00,721.00 L1492.00,722.00 L1492.00,777.00 L1490.00,778.00 L1490.00,791.00 L1488.00,792.00 L1488.00,811.00 L1486.00,812.00 L1486.00,827.00 L1484.00,828.00 L1484.00,833.00 L1482.00,834.00 L1482.00,843.00 L1480.00,844.00 L1480.00,849.00 L1478.00,850.00 L1478.00,859.00 L1476.00,860.00 L1476.00,867.00 L1474.00,868.00 L1474.00,873.00 L1472.00,874.00 L1472.00,881.00 L1468.00,886.00 L1468.00,893.00 L1466.00,894.00 L1466.00,897.00 L1462.00,902.00 L1462.00,907.00 L1460.00,908.00 L1460.00,911.00 L1458.00,912.00 L1458.00,915.00 L1456.00,916.00 L1456.00,919.00 L1454.00,920.00 L1454.00,923.00 L1452.00,924.00 L1452.00,927.00 L1450.00,928.00 L1448.00,935.00 L1444.00,938.00 L1442.00,945.00 L1438.00,948.00 L1438.00,951.00 L1434.00,954.00 L1434.00,957.00 L1428.00,962.00 L1428.00,965.00 L1422.00,970.00 L1422.00,973.00 L1397.00,998.00 L1394.00,998.00 L1387.00,1006.00 L1384.00,1006.00 L1379.00,1012.00 L1376.00,1012.00 L1375.00,1014.00 L1368.00,1016.00 L1365.00,1020.00 L1362.00,1020.00 L1361.00,1022.00 L1358.00,1022.00 L1353.00,1026.00 L1348.00,1026.00 L1345.00,1030.00 L1340.00,1030.00 L1339.00,1032.00 L1334.00,1032.00 L1333.00,1034.00 L1328.00,1034.00 L1327.00,1036.00 L1320.00,1036.00 L1319.00,1038.00 L1314.00,1038.00 L1313.00,1040.00 L1302.00,1040.00 L1301.00,1042.00 L1290.00,1042.00 L1289.00,1044.00 L1278.00,1044.00 L1277.00,1046.00 L1216.00,1046.00 L1215.00,1044.00 L1202.00,1044.00 L1201.00,1042.00 L1196.00,1042.00 L1195.00,1040.00 L1188.00,1040.00 L1183.00,1036.00 L1176.00,1036.00 L1175.00,1034.00 L1172.00,1034.00 L1169.00,1030.00 L1166.00,1030.00 L1165.00,1028.00 L1158.00,1026.00 L1155.00,1022.00 L1152.00,1022.00 L1147.00,1016.00 L1143.00,1015.00 L1143.00,1012.00 L1140.00,1012.00 L1131.00,1003.00 L1131.00,1000.00 L1127.00,997.00 L1127.00,994.00 L1119.00,987.00 L1119.00,984.00 L1117.00,983.00 L1117.00,980.00 L1115.00,979.00 L1115.00,976.00 L1113.00,975.00 L1113.00,972.00 L1109.00,967.00 L1109.00,962.00 L1105.00,957.00 L1105.00,952.00 L1103.00,951.00 L1103.00,944.00 L1099.00,939.00 L1099.00,928.00 L1097.00,927.00 L1097.00,918.00 L1095.00,917.00 L1095.00,902.00 L1093.00,901.00 L1093.00,834.00 L1095.00,833.00 L1095.00,816.00 L1097.00,815.00 L1097.00,802.00 L1099.00,801.00 L1099.00,790.00 L1101.00,789.00 L1101.00,782.00 L1103.00,781.00 L1103.00,770.00 L1105.00,769.00 L1105.00,760.00 L1107.00,759.00 L1107.00,754.00 L1109.00,753.00 L1109.00,750.00 L1113.00,749.00 L1113.00,746.00 L1124.00,735.00 L1127.00,735.00 L1136.00,725.00 L1139.00,725.00 L1148.00,717.00 L1155.00,715.00 L1158.00,711.00 L1163.00,711.00 L1168.00,707.00 L1173.00,707.00 L1174.00,705.00 L1179.00,705.00 L1180.00,703.00 L1187.00,703.00 L1188.00,701.00 L1221.00,701.00 L1222.00,703.00 L1231.00,703.00 L1232.00,705.00 L1237.00,705.00 L1238.00,707.00 L1243.00,707.00 L1244.00,709.00 L1251.00,711.00 L1254.00,715.00 L1257.00,715.00 L1262.00,721.00 L1265.00,721.00 L1272.00,728.00 L1272.00,731.00 L1278.00,736.00 L1278.00,739.00 L1280.00,740.00 L1280.00,743.00 L1282.00,744.00 L1282.00,747.00 L1286.00,752.00 L1286.00,765.00 L1288.00,766.00 L1288.00,773.00 L1286.00,774.00 L1286.00,785.00 L1282.00,790.00 L1282.00,795.00 L1278.00,798.00 L1278.00,801.00 L1274.00,804.00 L1274.00,807.00 L1265.00,816.00 L1262.00,816.00 L1255.00,824.00 L1252.00,824.00 L1243.00,832.00 L1236.00,834.00 L1227.00,842.00 L1220.00,844.00 L1217.00,848.00 L1210.00,850.00 L1202.00,858.00 L1202.00,861.00 L1198.00,864.00 L1198.00,871.00 L1196.00,872.00 L1196.00,881.00 L1198.00,882.00 L1198.00,889.00 L1202.00,892.00 L1202.00,895.00 L1208.00,901.00 L1211.00,901.00 L1216.00,905.00 L1221.00,905.00 L1222.00,907.00 L1231.00,907.00 L1236.00,911.00 L1241.00,911.00 L1242.00,913.00 L1247.00,913.00 L1248.00,915.00 L1255.00,915.00 L1256.00,917.00 L1269.00,917.00 L1270.00,919.00 L1301.00,919.00 L1302.00,917.00 L1313.00,917.00 L1314.00,915.00 L1321.00,915.00 L1322.00,913.00 L1327.00,913.00 L1328.00,911.00 L1335.00,911.00 L1336.00,909.00 L1339.00,909.00 L1340.00,907.00 L1343.00,907.00 L1344.00,905.00 L1347.00,905.00 L1348.00,903.00 L1351.00,903.00 L1352.00,901.00 L1359.00,899.00 L1368.00,891.00 L1371.00,891.00 L1378.00,883.00 L1381.00,883.00 L1403.00,861.00 L1403.00,858.00 L1413.00,849.00 L1413.00,846.00 L1417.00,843.00 L1419.00,836.00 L1423.00,833.00 L1423.00,828.00 L1427.00,825.00 L1427.00,820.00 L1431.00,817.00 L1433.00,806.00 L1437.00,801.00 L1437.00,794.00 L1439.00,793.00 L1439.00,788.00 L1441.00,787.00 L1441.00,778.00 L1443.00,777.00 L1443.00,760.00 L1445.00,759.00 L1445.00,724.00 L1443.00,723.00 L1443.00,706.00 L1441.00,705.00 L1441.00,696.00 L1439.00,695.00 L1439.00,690.00 L1437.00,689.00 L1437.00,680.00 L1433.00,675.00 L1431.00,664.00 L1429.00,663.00 L1429.00,660.00 L1427.00,659.00 L1427.00,656.00 L1425.00,655.00 L1425.00,652.00 L1423.00,651.00 L1423.00,648.00 L1421.00,647.00 L1421.00,644.00 L1419.00,643.00 L1417.00,636.00 L1413.00,633.00 L1413.00,630.00 L1409.00,627.00 L1409.00,624.00 L1403.00,619.00 L1403.00,616.00 L1397.00,611.00 L1397.00,608.00 L1394.00,608.00 L1393.00,604.00 L1373.00,584.00 L1370.00,584.00 L1363.00,576.00 L1360.00,576.00 L1355.00,570.00 L1352.00,570.00 L1343.00,562.00 L1336.00,560.00 L1333.00,556.00 L1330.00,556.00 L1329.00,554.00 L1326.00,554.00 L1325.00,552.00 L1322.00,552.00 L1321.00,550.00 L1318.00,550.00 L1317.00,548.00 L1314.00,548.00 L1309.00,544.00 L1304.00,544.00 L1299.00,540.00 L1294.00,540.00 L1293.00,538.00 L1288.00,538.00 L1287.00,536.00 L1282.00,536.00 L1281.00,534.00 L1274.00,534.00 L1273.00,532.00 L1268.00,532.00 L1267.00,530.00 L1256.00,530.00 L1255.00,528.00 L1248.00,528.00 L1247.00,526.00 L1232.00,526.00 L1231.00,524.00 L1180.00,524.00 L1179.00,526.00 L1160.00,526.00 L1159.00,528.00 L1152.00,528.00 L1151.00,530.00 L1140.00,530.00 L1139.00,532.00 L1132.00,532.00 L1131.00,534.00 L1116.00,536.00 L1115.00,538.00 L1110.00,538.00 L1109.00,540.00 L1102.00,540.00 L1097.00,544.00 L1092.00,544.00 L1091.00,546.00 L1086.00,546.00 L1081.00,550.00 L1076.00,550.00 L1073.00,554.00 L1068.00,554.00 L1067.00,556.00 L1064.00,556.00 L1063.00,558.00 L1056.00,560.00 L1053.00,564.00 L1046.00,566.00 L1043.00,570.00 L1040.00,570.00 L1037.00,574.00 L1034.00,574.00 L1031.00,578.00 L1028.00,578.00 L1025.00,582.00 L1022.00,582.00 L1015.00,590.00 L1012.00,590.00 L999.00,604.00 L996.00,604.00 L996.00,607.00 L992.00,608.00 L992.00,611.00 L989.00,614.00 L986.00,614.00 L986.00,617.00 L976.00,626.00 L976.00,629.00 L970.00,634.00 L970.00,637.00 L962.00,644.00 L962.00,647.00 L958.00,650.00 L956.00,657.00 L948.00,666.00 L948.00,671.00 L946.00,672.00 L946.00,675.00 L944.00,676.00 L944.00,679.00 L942.00,680.00 L942.00,683.00 L940.00,684.00 L940.00,687.00 L938.00,688.00 L938.00,691.00 L936.00,692.00 L936.00,695.00 L932.00,700.00 L932.00,705.00 L928.00,708.00 L928.00,715.00 L926.00,716.00 L926.00,721.00 L924.00,722.00 L924.00,727.00 L922.00,728.00 L922.00,735.00 L920.00,736.00 L920.00,741.00 L918.00,742.00 L918.00,749.00 L916.00,750.00 L916.00,755.00 L914.00,756.00 L914.00,767.00 L912.00,768.00 L912.00,779.00 L910.00,780.00 L910.00,791.00 L908.00,792.00 L908.00,835.00 L906.00,836.00 L906.00,849.00 L908.00,850.00 L908.00,881.00 L910.00,882.00 L910.00,889.00 L912.00,890.00 L912.00,903.00 L914.00,904.00 L914.00,915.00 L916.00,916.00 L916.00,921.00 L918.00,922.00 L918.00,931.00 L920.00,932.00 L920.00,937.00 L922.00,938.00 L922.00,947.00 L924.00,948.00 L924.00,953.00 L928.00,958.00 L928.00,965.00 L932.00,968.00 L932.00,975.00 L934.00,976.00 L934.00,979.00 L938.00,984.00 L938.00,989.00 L940.00,990.00 L940.00,993.00 L942.00,994.00 L942.00,997.00 L944.00,998.00 L944.00,1001.00 L946.00,1002.00 L946.00,1005.00 L948.00,1006.00 L948.00,1009.00 L950.00,1010.00 L952.00,1017.00 L956.00,1020.00 L956.00,1023.00 L958.00,1024.00 L958.00,1027.00 L960.00,1028.00 L962.00,1035.00 L966.00,1038.00 L966.00,1041.00 L972.00,1046.00 L972.00,1049.00 L976.00,1052.00 L976.00,1055.00 L980.00,1058.00 L980.00,1061.00 L986.00,1066.00 L986.00,1069.00 L1000.00,1082.00 L1000.00,1085.00 L1020.00,1105.00 L1023.00,1105.00 L1036.00,1119.00 L1039.00,1119.00 L1046.00,1127.00 L1049.00,1127.00 L1054.00,1133.00 L1057.00,1133.00 L1060.00,1137.00 L1067.00,1139.00 L1070.00,1143.00 L1073.00,1143.00 L1076.00,1147.00 L1083.00,1149.00 L1086.00,1153.00 L1091.00,1153.00 L1094.00,1157.00 L1099.00,1157.00 L1100.00,1159.00 L1103.00,1159.00 L1104.00,1161.00 L1107.00,1161.00 L1108.00,1163.00 L1111.00,1163.00 L1116.00,1167.00 L1121.00,1167.00 L1122.00,1169.00 L1125.00,1169.00 L1126.00,1171.00 L1131.00,1171.00 L1132.00,1173.00 L1139.00,1173.00 L1144.00,1177.00 L1151.00,1177.00 L1156.00,1181.00 L1163.00,1181.00 L1164.00,1183.00 L1173.00,1183.00 L1174.00,1185.00 L1181.00,1185.00 L1182.00,1187.00 L1191.00,1187.00 L1192.00,1189.00 L1199.00,1189.00 L1200.00,1191.00 L1213.00,1191.00 L1214.00,1193.00 L1229.00,1193.00 L1230.00,1195.00 L1249.00,1195.00 L1250.00,1197.00 L1301.00,1197.00 L1302.00,1195.00 L1315.00,1195.00 L1316.00,1193.00 L1333.00,1193.00 L1334.00,1191.00 L1345.00,1191.00 L1346.00,1189.00 L1351.00,1189.00 L1352.00,1187.00 L1363.00,1187.00 L1364.00,1185.00 L1369.00,1185.00 L1370.00,1183.00 L1377.00,1183.00 L1378.00,1181.00 L1383.00,1181.00 L1388.00,1177.00 L1395.00,1177.00 L1400.00,1173.00 L1405.00,1173.00 L1406.00,1171.00 L1411.00,1171.00 L1416.00,1167.00 L1421.00,1167.00 L1424.00,1163.00 L1429.00,1163.00 L1430.00,1161.00 L1433.00,1161.00 L1434.00,1159.00 L1441.00,1157.00 L1444.00,1153.00 L1447.00,1153.00 L1448.00,1151.00 L1451.00,1151.00 L1452.00,1149.00 L1459.00,1147.00 L1468.00,1139.00 L1475.00,1137.00 L1478.00,1133.00 L1481.00,1133.00 L1484.00,1129.00 L1487.00,1129.00 L1492.00,1123.00 L1495.00,1123.00 L1502.00,1115.00 L1505.00,1115.00 L1518.00,1101.00 L1521.00,1101.00 L1553.00,1069.00 L1553.00,1066.00 L1565.00,1055.00 L1565.00,1052.00 L1571.00,1047.00 L1571.00,1044.00 L1581.00,1035.00 L1581.00,1032.00 L1585.00,1029.00 L1585.00,1026.00 L1589.00,1023.00 L1589.00,1020.00 L1595.00,1015.00 L1595.00,1012.00 L1599.00,1009.00 L1601.00,1002.00 L1609.00,993.00 L1609.00,988.00 L1617.00,979.00 L1617.00,976.00 L1619.00,975.00 L1619.00,972.00 L1621.00,971.00 L1621.00,968.00 L1623.00,967.00 L1623.00,964.00 L1625.00,963.00 L1625.00,960.00 L1627.00,959.00 L1627.00,956.00 L1629.00,955.00 L1629.00,952.00 L1631.00,951.00 L1631.00,948.00 L1633.00,947.00 L1633.00,944.00 L1635.00,943.00 L1635.00,940.00 L1639.00,935.00 L1639.00,930.00 L1641.00,929.00 L1641.00,926.00 L1645.00,921.00 L1645.00,916.00 L1647.00,915.00 L1647.00,912.00 L1649.00,911.00 L1649.00,906.00 L1653.00,901.00 L1655.00,890.00 L1659.00,885.00 L1659.00,878.00 L1663.00,873.00 L1663.00,866.00 L1665.00,865.00 L1665.00,860.00 L1667.00,859.00 L1667.00,854.00 L1669.00,853.00 L1669.00,846.00 L1671.00,845.00 L1671.00,838.00 L1673.00,837.00 L1673.00,828.00 L1675.00,827.00 L1675.00,822.00 L1677.00,821.00 L1677.00,812.00 L1679.00,811.00 L1679.00,802.00 L1681.00,801.00 L1681.00,794.00 L1683.00,793.00 L1683.00,780.00 L1685.00,779.00 L1685.00,770.00 L1687.00,769.00 L1687.00,752.00 L1689.00,751.00 L1689.00,734.00 L1691.00,733.00 L1691.00,712.00 L1693.00,711.00 L1693.00,642.00 L1691.00,641.00 L1691.00,618.00 L1689.00,617.00 L1689.00,600.00 L1687.00,599.00 L1687.00,584.00 L1685.00,583.00 L1685.00,574.00 L1683.00,573.00 L1683.00,562.00 L1681.00,561.00 L1681.00,554.00 L1679.00,553.00 L1677.00,534.00 L1675.00,533.00 L1675.00,528.00 L1673.00,527.00 L1673.00,520.00 L1671.00,519.00 L1671.00,514.00 L1669.00,513.00 L1667.00,498.00 L1665.00,497.00 L1665.00,494.00 L1663.00,493.00 L1663.00,488.00 L1659.00,483.00 L1659.00,476.00 L1657.00,475.00 L1657.00,470.00 L1655.00,469.00 L1655.00,466.00 L1653.00,465.00 L1653.00,462.00 L1649.00,457.00 L1649.00,452.00 L1647.00,451.00 L1647.00,448.00 L1643.00,443.00 L1643.00,438.00 L1639.00,435.00 L1639.00,430.00 L1637.00,429.00 L1637.00,426.00 L1633.00,423.00 L1633.00,418.00 L1629.00,415.00 L1629.00,412.00 L1627.00,411.00 L1625.00,404.00 L1621.00,401.00 L1621.00,398.00 L1619.00,397.00 L1619.00,394.00 L1615.00,391.00 L1613.00,384.00 L1609.00,381.00 L1609.00,378.00 L1603.00,373.00 L1603.00,370.00 L1599.00,367.00 L1599.00,364.00 L1591.00,357.00 L1591.00,354.00 L1581.00,345.00 L1581.00,342.00 L1559.00,321.00 L1559.00,318.00 L1556.00,318.00 L1543.00,304.00 L1540.00,304.00 L1531.00,294.00 L1528.00,294.00 L1525.00,290.00 L1522.00,290.00 L1517.00,284.00 L1514.00,284.00 L1511.00,280.00 L1508.00,280.00 L1505.00,276.00 L1502.00,276.00 L1497.00,270.00 Z"/>
</g>
</svg>